<?xml version="1.0" standalone="no"?>
<!DOCTYPE svg PUBLIC "-//W3C//DTD SVG 20010904//EN"
 "http://www.w3.org/TR/2001/REC-SVG-20010904/DTD/svg10.dtd">
<svg version="1.0" xmlns="http://www.w3.org/2000/svg"
 width="1757.000000pt" height="1757.000000pt" viewBox="0 0 1757.000000 1757.000000"
 preserveAspectRatio="xMidYMid meet">
<metadata>
Created by potrace 1.11, written by Peter Selinger 2001-2013
</metadata>
<g transform="translate(0.000000,1757.000000) scale(0.100000,-0.100000)"
fill="#000000" stroke="none">
<path d="M8459 17556 c-2 -2 -71 -7 -154 -11 -82 -3 -166 -8 -185 -10 -19 -2
-69 -6 -110 -9 -41 -4 -91 -8 -110 -11 -19 -2 -57 -7 -85 -10 -123 -13 -323
-39 -385 -50 -14 -2 -81 -14 -149 -25 -69 -12 -127 -23 -130 -24 -3 -2 -26 -7
-51 -10 -138 -19 -617 -138 -875 -218 -71 -22 -158 -49 -193 -60 -126 -39
-523 -188 -647 -243 -16 -7 -68 -30 -115 -50 -47 -21 -105 -47 -130 -57 -259
-114 -672 -337 -1005 -543 -297 -183 -763 -523 -1011 -737 -256 -222 -622
-573 -800 -768 -241 -266 -416 -478 -619 -755 -106 -144 -335 -479 -335 -490
0 -2 -24 -42 -53 -87 -361 -563 -731 -1384 -934 -2068 -56 -192 -143 -525
-167 -645 -9 -41 -15 -71 -21 -97 -6 -25 -42 -215 -50 -263 -3 -16 -7 -41 -10
-55 -10 -55 -43 -274 -51 -335 -2 -22 -6 -56 -9 -75 -2 -19 -7 -60 -10 -90 -3
-30 -8 -71 -10 -90 -3 -19 -7 -71 -11 -114 -3 -44 -7 -93 -9 -108 -31 -248
-26 -1085 9 -1438 3 -30 8 -84 11 -120 3 -36 8 -81 10 -100 3 -19 7 -53 10
-75 20 -163 26 -202 29 -220 2 -11 6 -41 10 -66 4 -25 9 -58 11 -72 3 -15 10
-55 15 -90 36 -213 158 -750 200 -882 5 -16 30 -97 56 -180 152 -496 337 -955
562 -1395 73 -142 178 -337 219 -405 7 -11 16 -27 20 -35 8 -18 125 -210 157
-260 135 -208 193 -295 275 -410 53 -74 101 -142 108 -150 6 -8 62 -80 123
-159 61 -79 117 -149 123 -156 7 -8 23 -28 37 -46 14 -18 30 -37 35 -43 6 -6
37 -43 70 -81 32 -39 66 -77 75 -86 8 -9 63 -70 123 -135 331 -366 777 -770
1192 -1081 99 -74 187 -140 196 -147 39 -32 435 -290 550 -358 555 -333 1080
-577 1684 -785 205 -71 273 -92 510 -158 75 -21 343 -89 395 -100 8 -2 49 -11
90 -20 41 -8 100 -21 130 -27 30 -5 60 -11 65 -12 6 -2 33 -7 60 -11 28 -5 52
-10 55 -10 3 -1 28 -5 55 -9 28 -4 73 -12 100 -17 28 -5 64 -11 80 -13 17 -2
71 -9 120 -16 50 -6 101 -13 115 -15 14 -2 52 -6 85 -10 33 -3 71 -8 85 -10
14 -2 63 -6 110 -10 47 -3 101 -8 120 -10 229 -26 1076 -26 1340 0 25 2 74 7
110 10 148 13 177 16 210 21 19 2 55 7 80 9 25 3 77 9 115 15 39 6 88 13 110
15 58 8 268 43 350 60 39 8 84 16 100 19 17 3 93 20 170 37 77 17 150 33 162
35 12 2 34 9 48 14 14 5 25 8 25 5 0 -2 19 2 41 11 23 8 51 16 63 18 71 14
360 100 556 166 824 279 1590 673 2310 1187 164 118 404 306 580 455 320 272
742 697 1020 1028 30 36 57 67 60 70 3 3 46 57 96 120 856 1081 1438 2322
1719 3664 20 94 38 185 41 204 3 19 7 44 10 55 2 12 6 37 9 57 3 20 7 47 10
60 8 39 36 231 40 274 3 21 7 55 9 75 5 40 14 115 21 176 2 22 7 74 10 115 3
41 8 91 10 110 26 219 26 1206 -1 1344 -2 10 -6 57 -9 105 -3 47 -7 97 -10
111 -2 14 -6 52 -10 85 -13 124 -23 204 -30 245 -2 14 -7 45 -10 70 -24 185
-93 537 -155 795 -129 534 -330 1107 -568 1620 -60 130 -224 452 -272 535 -20
36 -59 103 -85 150 -41 71 -171 282 -288 465 -27 42 -27 45 -10 62 63 63 158
208 206 313 80 177 109 306 112 506 4 219 -29 377 -121 572 -142 304 -429 554
-754 660 -59 19 -88 27 -185 47 -60 13 -320 13 -395 0 -146 -25 -297 -72 -370
-116 -8 -5 -28 -15 -45 -22 -16 -8 -60 -35 -98 -61 l-67 -46 -103 84 c-325
265 -890 645 -1211 815 -33 17 -64 35 -70 40 -17 14 -409 211 -516 259 -52 24
-113 52 -135 62 -477 220 -1170 443 -1752 564 -195 40 -448 84 -583 101 -30 4
-63 9 -72 10 -9 2 -48 7 -85 10 -37 4 -75 8 -83 10 -8 2 -47 7 -85 10 -39 3
-90 8 -115 10 -25 3 -85 7 -135 10 -49 4 -110 9 -135 11 -53 6 -836 15 -841
10z m831 -590 c78 -5 208 -16 255 -21 22 -2 67 -7 100 -10 33 -3 69 -7 80 -9
11 -2 52 -7 90 -11 39 -4 77 -8 85 -10 8 -1 42 -6 75 -11 33 -4 62 -8 65 -9 4
-1 35 -6 135 -21 17 -2 53 -9 80 -14 28 -6 97 -19 154 -31 201 -39 386 -84
621 -150 162 -46 420 -127 472 -149 13 -5 93 -34 178 -66 163 -60 360 -142
520 -215 168 -76 562 -279 652 -336 21 -13 39 -23 41 -23 4 0 60 -34 264 -159
225 -138 677 -465 846 -611 5 -4 -2 -32 -16 -61 -67 -149 -98 -292 -102 -474
-6 -263 58 -504 189 -709 43 -67 37 -60 114 -151 142 -168 334 -300 545 -374
49 -17 103 -33 120 -37 18 -3 52 -10 77 -16 74 -17 314 -18 410 -2 132 23 137
24 197 45 31 10 57 19 59 19 13 0 302 -472 398 -650 84 -155 246 -486 311
-635 50 -115 78 -185 171 -420 58 -149 195 -577 233 -730 5 -22 21 -85 36
-140 42 -167 111 -497 130 -620 3 -22 7 -47 10 -55 2 -8 7 -36 10 -62 5 -49
22 -173 30 -218 2 -14 7 -52 10 -85 3 -33 8 -71 10 -85 2 -14 7 -65 10 -114 4
-49 8 -97 10 -107 26 -134 26 -996 0 -1289 -2 -19 -6 -69 -9 -110 -6 -64 -15
-145 -41 -365 -3 -22 -8 -53 -11 -70 -3 -16 -7 -41 -9 -55 -18 -132 -34 -224
-50 -300 -3 -14 -7 -36 -10 -50 -3 -14 -9 -47 -15 -75 -6 -27 -12 -61 -15 -74
-2 -13 -14 -64 -26 -115 -189 -803 -470 -1516 -887 -2248 -107 -189 -404 -643
-489 -748 -6 -8 -69 -89 -139 -180 -70 -91 -130 -167 -133 -170 -3 -3 -40 -45
-81 -95 -41 -49 -79 -95 -85 -101 -5 -6 -46 -51 -90 -100 -101 -114 -472 -484
-594 -594 -399 -361 -970 -776 -1391 -1013 -19 -11 -69 -39 -110 -62 -185
-105 -461 -242 -715 -355 -477 -212 -1203 -439 -1680 -524 -16 -3 -41 -8 -55
-11 -49 -10 -376 -63 -430 -70 -30 -3 -62 -8 -70 -10 -8 -2 -46 -7 -85 -10
-38 -4 -83 -8 -100 -11 -16 -2 -64 -6 -105 -10 -41 -3 -91 -7 -110 -9 -283
-27 -953 -27 -1275 0 -22 1 -74 6 -115 9 -41 4 -91 9 -110 11 -19 2 -60 7 -90
10 -30 3 -102 13 -160 21 -58 8 -123 17 -145 20 -54 7 -266 44 -285 49 -8 2
-31 7 -50 10 -63 11 -343 74 -460 104 -401 102 -920 282 -1246 432 -36 16 -67
29 -69 29 -10 0 -433 209 -524 259 -241 133 -190 102 -487 289 -323 203 -577
387 -857 620 -245 204 -319 273 -587 541 -113 113 -252 260 -310 326 -58 66
-109 125 -115 131 -181 202 -590 761 -713 974 -14 25 -29 47 -32 50 -3 3 -18
25 -31 50 -14 25 -61 106 -104 180 -81 141 -277 521 -335 650 -168 378 -291
707 -404 1080 -15 47 -28 96 -31 109 -2 13 -9 38 -14 55 -25 77 -120 476 -135
569 -3 15 -10 55 -17 90 -13 68 -15 83 -24 141 -3 21 -7 41 -9 45 -2 3 -7 31
-11 61 -3 30 -8 66 -10 80 -2 14 -6 43 -9 65 -3 22 -8 56 -10 75 -3 19 -8 60
-11 90 -3 30 -8 71 -10 90 -2 19 -7 64 -10 100 -3 36 -7 90 -10 120 -15 173
-18 290 -19 610 -1 304 6 530 19 670 2 19 6 76 10 125 4 50 9 99 11 110 2 11
6 44 9 75 6 61 11 101 19 145 2 17 8 55 12 85 15 124 24 182 30 201 2 9 7 34
10 55 2 22 6 46 9 54 2 8 7 29 9 45 3 17 15 75 26 130 12 55 24 111 26 125 64
326 252 925 411 1310 51 126 73 176 143 330 56 124 218 442 269 528 17 29 31
55 31 58 0 9 187 318 268 444 74 113 250 370 261 380 4 3 33 41 65 85 222 298
441 550 751 861 246 247 373 363 600 549 72 58 139 113 150 122 114 95 475
348 696 489 371 238 961 536 1369 691 30 12 84 33 120 46 426 164 1046 330
1500 402 19 3 42 8 50 10 8 2 40 7 70 10 30 3 62 8 70 10 8 2 40 7 70 10 30 3
62 7 70 10 8 2 44 6 80 10 36 3 79 7 95 9 17 2 68 7 115 11 47 3 96 8 110 10
14 2 86 7 160 10 74 4 137 8 138 10 5 4 771 -4 842 -9z"/>
<path d="M6110 15826 c0 -2 7 -9 15 -16 9 -7 15 -8 15 -2 0 5 -7 12 -15 16 -8
3 -15 4 -15 2z"/>
<path d="M6200 15815 c0 -8 4 -15 10 -15 5 0 7 7 4 15 -4 8 -8 15 -10 15 -2 0
-4 -7 -4 -15z"/>
<path d="M6090 15811 c0 -7 -5 -9 -12 -5 -7 5 -8 3 -3 -5 5 -9 10 -10 18 -2 6
6 8 14 4 18 -4 3 -7 1 -7 -6z"/>
<path d="M6160 15805 c13 -17 13 -18 -1 -13 -9 4 -22 1 -29 -5 -10 -9 -11 -9
-6 1 9 15 1 15 -26 1 -14 -7 -23 -8 -30 -1 -13 13 -40 4 -32 -10 4 -6 -4 -5
-16 2 -12 6 -24 9 -28 6 -3 -3 -1 -6 3 -6 5 0 0 -7 -11 -16 -10 -8 -14 -13 -7
-10 6 4 14 2 18 -3 5 -9 -30 -7 -65 4 -9 3 -7 -1 4 -10 17 -13 18 -17 6 -28
-10 -9 -12 -9 -6 1 4 6 2 12 -3 12 -6 0 -11 -5 -11 -12 0 -6 -3 -8 -7 -5 -9 9
-44 -23 -37 -34 3 -5 2 -15 -2 -21 -5 -7 -9 -21 -9 -30 -1 -10 -10 -28 -21
-40 -12 -13 -13 -18 -4 -13 13 8 13 7 1 -8 -7 -9 -10 -17 -6 -17 4 0 -4 -11
-19 -25 -15 -14 -23 -25 -18 -25 5 0 10 -11 10 -25 0 -14 -6 -25 -12 -25 -6 0
-5 -4 3 -9 11 -7 12 -13 3 -23 -7 -9 -7 -19 -2 -28 6 -10 3 -21 -8 -34 -9 -11
-12 -16 -5 -13 6 4 14 3 17 -2 4 -5 -3 -13 -15 -16 -17 -6 -19 -9 -8 -16 21
-13 20 -52 -1 -46 -10 2 -17 -1 -17 -9 0 -8 3 -12 5 -9 6 6 31 -26 32 -39 0
-6 -7 -1 -16 10 -15 18 -15 18 -11 -8 2 -16 1 -28 -3 -28 -7 0 -6 -31 1 -57 2
-6 -5 -19 -16 -27 -13 -11 -15 -14 -4 -11 12 5 16 0 15 -21 -1 -15 -8 -30 -15
-32 -8 -3 -11 0 -7 6 3 6 2 13 -3 16 -5 3 -7 -10 -5 -29 1 -20 0 -34 -4 -31
-4 2 -7 -22 -6 -55 1 -37 -3 -59 -10 -59 -7 0 -7 -3 -1 -8 6 -4 11 -15 11 -25
2 -18 1 -18 -19 0 -21 18 -21 18 -7 -2 8 -11 20 -23 25 -27 6 -5 5 -8 -2 -8
-7 0 -13 -5 -13 -11 0 -5 6 -7 13 -3 8 5 8 2 -2 -9 -11 -14 -11 -17 0 -17 12
0 12 -2 0 -9 -8 -5 -10 -14 -6 -21 5 -9 4 -11 -4 -6 -6 4 -9 18 -7 31 3 14 1
27 -3 29 -10 7 -8 -56 3 -73 7 -10 6 -12 -3 -6 -9 5 -12 -2 -11 -26 3 -57 0
-80 -9 -74 -5 3 -13 1 -16 -5 -4 -6 -1 -9 7 -8 9 2 13 -11 13 -44 0 -25 -3
-44 -7 -41 -5 2 -8 -1 -8 -7 0 -6 -4 -9 -8 -6 -4 2 -8 -5 -9 -17 0 -12 -2 -29
-4 -37 -2 -9 2 -14 11 -12 13 2 13 1 -1 -10 -11 -10 -13 -22 -8 -46 6 -29 5
-31 -9 -20 -12 10 -14 10 -8 1 14 -25 14 -51 0 -57 -11 -4 -13 1 -8 22 4 15 4
24 0 21 -12 -11 -16 -89 -5 -89 6 0 7 5 4 10 -10 16 1 11 16 -7 8 -9 9 -14 3
-10 -15 8 -38 -18 -29 -33 3 -6 11 -7 17 -4 7 4 8 2 4 -5 -4 -6 -11 -9 -16 -6
-4 3 -8 -16 -7 -42 1 -29 -3 -48 -10 -48 -6 0 -15 -4 -20 -9 -4 -5 -3 -6 4 -2
20 11 26 -15 7 -30 -15 -11 -16 -13 -3 -8 19 6 35 -11 19 -21 -6 -4 -8 -10 -5
-15 3 -4 -3 -14 -12 -21 -15 -12 -16 -12 -8 1 10 16 16 40 9 40 -2 0 -8 -9
-14 -21 -8 -15 -8 -24 0 -34 8 -10 8 -14 -2 -18 -11 -3 -11 -8 0 -26 7 -11 9
-21 5 -20 -20 3 -27 -2 -13 -11 13 -9 13 -11 0 -20 -13 -9 -13 -10 0 -10 13 0
13 -2 0 -9 -8 -6 -18 -7 -24 -4 -5 3 -6 1 -2 -6 4 -6 12 -9 17 -6 14 10 10
-11 -5 -24 -8 -7 -13 -20 -11 -29 1 -9 -3 -20 -9 -24 -8 -5 -7 -8 2 -8 10 0
10 -5 1 -21 -9 -17 -8 -20 3 -14 7 3 4 -1 -6 -9 -11 -9 -14 -16 -7 -16 7 0 9
-4 6 -10 -3 -5 0 -10 7 -10 8 0 9 -3 3 -8 -16 -11 -17 -33 -3 -51 7 -9 8 -13
4 -9 -5 4 -15 3 -22 -3 -11 -9 -10 -15 3 -36 11 -16 13 -27 6 -31 -5 -4 -9
-17 -8 -29 1 -12 -2 -20 -7 -17 -4 3 -8 0 -8 -6 0 -6 -3 -9 -8 -7 -4 3 -7 -10
-8 -29 0 -19 4 -34 10 -34 6 0 4 -5 -4 -10 -13 -9 -13 -10 0 -10 13 0 13 -1 0
-10 -13 -9 -13 -11 0 -20 14 -9 7 -14 -13 -11 -4 1 -3 -8 3 -20 11 -19 10 -20
-12 -14 -22 7 -22 6 -4 -7 10 -8 20 -27 22 -43 3 -25 2 -26 -11 -9 -10 14 -10
21 -2 26 8 5 6 8 -5 8 -12 0 -16 -8 -14 -32 2 -18 -2 -37 -8 -41 -7 -6 -6 -7
4 -4 8 2 14 10 12 16 -1 7 2 9 8 6 8 -5 6 -13 -4 -24 -20 -22 -20 -31 2 -47
16 -13 16 -14 -2 -7 -16 5 -18 2 -14 -30 4 -33 2 -37 -17 -31 -15 4 -16 3 -6
-4 15 -11 23 -85 9 -75 -5 3 -7 11 -5 17 3 7 0 13 -7 13 -7 0 -10 -14 -8 -39
3 -23 -1 -45 -9 -55 -11 -13 -11 -15 -1 -9 9 6 12 1 10 -18 -2 -14 -7 -28 -11
-32 -4 -4 -1 -14 6 -22 10 -13 9 -15 -5 -9 -10 3 -20 2 -23 -4 -4 -5 -3 -9 2
-8 20 3 34 -2 28 -11 -4 -6 -10 -8 -15 -5 -5 3 -12 0 -16 -6 -4 -7 -3 -9 2 -6
6 3 15 -3 22 -13 7 -12 8 -21 2 -25 -6 -4 -7 -11 -4 -17 4 -7 2 -8 -5 -4 -6 4
-8 12 -5 18 4 7 2 8 -5 4 -6 -4 -8 -12 -5 -18 5 -8 1 -9 -10 -5 -10 4 -15 3
-11 -3 3 -6 13 -10 21 -10 13 0 13 -2 -1 -16 -12 -12 -13 -19 -4 -30 9 -11 9
-14 -1 -14 -7 0 -10 -6 -7 -14 3 -8 1 -17 -6 -20 -8 -3 -7 -5 2 -5 10 -1 7 -9
-10 -28 -22 -25 -22 -26 -1 -9 12 11 22 14 22 8 0 -6 -5 -14 -11 -18 -8 -5 -8
-8 0 -14 15 -9 3 -40 -15 -40 -8 0 -14 -7 -14 -15 0 -8 6 -13 13 -11 6 1 9 1
4 -1 -4 -3 -5 -9 -2 -14 4 -5 -1 -6 -10 -3 -13 5 -14 2 -5 -20 7 -19 7 -25 -1
-20 -6 4 -9 -1 -8 -12 2 -11 0 -25 -5 -33 -6 -9 -5 -12 1 -8 14 9 9 -44 -7
-73 -19 -35 -21 -73 -3 -66 8 3 11 1 8 -4 -3 -6 -14 -10 -23 -11 -14 0 -13 -2
3 -9 11 -5 14 -9 6 -9 -8 -1 -11 -8 -8 -21 3 -11 2 -22 -1 -24 -4 -2 -7 -36
-7 -75 1 -57 -2 -68 -12 -59 -8 6 -17 7 -21 3 -4 -4 -1 -10 6 -12 6 -3 12 -9
12 -14 0 -6 -4 -7 -10 -4 -8 5 -17 -95 -11 -129 1 -4 -4 -15 -11 -24 -11 -13
-11 -14 0 -8 10 6 12 1 9 -18 -3 -27 -13 -34 -25 -20 -4 4 -2 4 4 1 6 -3 11 0
11 8 0 11 -4 12 -13 4 -17 -14 1 -53 19 -42 9 5 9 3 0 -9 -7 -8 -9 -19 -5 -23
4 -5 2 -5 -5 -1 -6 3 -14 2 -18 -4 -3 -5 -1 -10 6 -10 9 0 9 -3 0 -14 -9 -11
-9 -15 1 -19 9 -4 10 -6 1 -6 -7 -1 -10 -8 -6 -18 5 -11 3 -14 -6 -8 -10 6
-11 3 -2 -14 8 -14 8 -21 1 -21 -7 0 -7 -7 1 -22 11 -21 11 -22 -5 -9 -15 12
-17 12 -14 0 2 -8 10 -19 18 -26 13 -10 13 -11 0 -10 -8 2 -22 6 -30 11 -12 7
-13 6 -2 -5 16 -17 16 -32 0 -23 -10 6 -10 4 0 -7 14 -15 17 -33 4 -25 -5 3
-9 -1 -9 -9 0 -8 5 -11 11 -8 6 4 5 0 -1 -8 -10 -12 -10 -18 0 -29 9 -10 9
-11 0 -6 -7 4 -13 3 -13 -1 0 -5 6 -15 13 -22 6 -8 7 -11 2 -8 -6 3 -15 -10
-21 -29 -10 -30 -9 -32 4 -21 13 10 14 9 4 -9 -6 -12 -8 -24 -5 -28 12 -12
-13 -6 -27 7 -12 10 -12 9 -2 -5 12 -15 10 -93 -3 -106 -2 -3 0 -11 6 -19 8
-9 8 -13 1 -13 -6 0 -9 -11 -6 -26 3 -18 -1 -31 -13 -40 -10 -7 -13 -14 -8
-14 6 0 3 -5 -5 -10 -11 -7 -11 -10 -2 -10 7 0 10 -5 6 -12 -4 -6 -3 -8 4 -4
6 3 9 15 7 26 -3 13 2 20 12 20 11 0 13 -3 5 -12 -10 -13 -12 -19 -12 -38 0
-5 -6 -10 -14 -10 -8 0 -18 -5 -22 -11 -4 -8 1 -9 17 -5 13 3 18 3 11 0 -6 -3
-9 -10 -6 -15 3 -6 1 -15 -4 -22 -5 -7 -9 -26 -9 -43 0 -16 -3 -36 -7 -43 -5
-8 -3 -17 5 -22 8 -5 9 -9 3 -9 -6 0 -11 -14 -12 -30 0 -17 4 -28 9 -25 5 4 4
-5 -3 -20 -8 -18 -14 -22 -20 -13 -4 7 -8 18 -8 23 0 6 5 3 10 -5 5 -8 10 -10
10 -4 0 5 -6 19 -14 29 -12 17 -13 13 -9 -32 2 -28 -1 -62 -7 -77 -6 -16 -6
-26 0 -26 5 0 6 -7 3 -17 -5 -12 -3 -14 8 -8 8 5 5 -1 -5 -13 -11 -12 -15 -22
-9 -22 6 0 8 -11 5 -25 -2 -15 -9 -22 -16 -18 -6 4 -4 -2 4 -12 8 -10 10 -16
4 -12 -7 4 -15 0 -18 -9 -10 -26 -7 -34 12 -29 9 3 5 -1 -11 -8 -29 -14 -28
-30 1 -19 15 5 15 4 -1 -12 -9 -10 -15 -22 -12 -27 4 -5 1 -9 -4 -9 -6 0 -11
-5 -11 -11 0 -5 3 -8 8 -6 4 3 7 -8 7 -24 1 -22 -3 -28 -15 -24 -9 3 -8 0 4
-10 11 -8 17 -18 13 -21 -4 -4 -12 -2 -20 4 -10 8 -13 6 -14 -9 -1 -10 3 -19
8 -19 6 0 7 5 4 10 -10 16 1 11 16 -7 10 -11 10 -14 2 -9 -8 4 -13 1 -13 -8 0
-9 5 -16 12 -16 6 0 9 -2 6 -5 -9 -10 -38 7 -31 18 3 6 1 7 -6 3 -9 -6 -9 -11
-1 -21 8 -10 8 -14 -1 -17 -9 -3 -8 -12 3 -35 12 -25 13 -30 2 -26 -9 3 -12
-2 -9 -16 2 -12 -1 -21 -8 -21 -8 0 -9 -3 -1 -8 13 -9 11 -109 -3 -123 -7 -7
-9 5 -8 36 3 54 -6 53 -11 -2 -1 -21 3 -44 9 -52 7 -9 8 -12 1 -8 -7 4 -11
-11 -13 -45 -1 -28 -7 -58 -14 -67 -9 -12 -9 -13 0 -7 9 5 12 0 11 -18 -1 -15
-9 -28 -18 -31 -13 -4 -16 -22 -16 -93 -1 -68 -4 -86 -15 -84 -9 2 -6 -5 6
-19 11 -12 15 -19 9 -16 -7 4 -15 0 -18 -9 -3 -8 -2 -12 4 -9 6 3 10 1 10 -4
0 -6 -6 -11 -14 -11 -8 0 -17 -7 -20 -16 -5 -14 -4 -15 8 -5 11 9 16 9 22 0 4
-7 3 -10 -2 -7 -5 3 -18 -6 -28 -20 -11 -14 -14 -22 -8 -18 6 3 13 2 16 -3 4
-5 2 -12 -3 -15 -5 -3 -8 -42 -7 -85 l1 -80 -25 16 c-22 15 -24 15 -12 1 9
-11 10 -18 2 -23 -14 -9 -13 -28 3 -22 6 2 11 11 9 18 -3 11 -1 11 8 2 9 -8 7
-16 -10 -33 -21 -21 -21 -22 -4 -41 13 -15 14 -18 3 -14 -12 5 -15 -5 -14 -50
0 -30 -3 -55 -7 -55 -5 0 -8 -5 -8 -11 0 -5 4 -7 10 -4 6 3 10 1 10 -4 0 -6
-9 -11 -20 -11 -11 0 -20 -4 -20 -10 0 -5 6 -7 14 -4 8 3 17 0 22 -7 4 -8 3
-10 -4 -5 -7 4 -19 3 -28 -2 -15 -8 -15 -10 0 -15 11 -5 15 -3 10 5 -5 7 -3 8
5 4 13 -8 6 -21 -11 -21 -6 0 -12 -15 -13 -32 -2 -22 1 -31 9 -26 8 5 8 3 0
-8 -6 -8 -10 -31 -10 -52 1 -33 -2 -37 -19 -33 -19 5 -19 4 -2 -9 12 -8 17
-22 15 -37 l-5 -23 -10 25 c-9 21 -10 14 -9 -38 1 -35 -1 -65 -6 -68 -14 -9
-8 -24 10 -24 13 0 14 -2 4 -9 -17 -10 -22 -42 -9 -58 12 -16 -5 -17 -20 -2
-8 8 -13 7 -18 -2 -5 -7 -4 -10 2 -6 6 4 17 -1 24 -10 12 -15 12 -16 -3 -10
-12 4 -15 2 -12 -8 3 -8 13 -11 22 -8 14 4 15 3 2 -5 -9 -7 -19 -7 -25 -2 -8
7 -11 -5 -11 -41 1 -28 -2 -52 -5 -55 -3 -2 -5 -15 -3 -30 2 -20 -1 -24 -14
-20 -11 4 -9 0 4 -10 25 -17 22 -50 -5 -57 -15 -4 -15 -5 0 -6 11 -1 16 -9 15
-25 0 -13 -5 -22 -9 -19 -5 3 -6 11 -4 17 3 7 -1 13 -9 13 -7 0 -11 -4 -8 -9
11 -17 12 -48 3 -48 -6 0 -7 -5 -4 -11 4 -6 14 -8 22 -5 8 3 11 1 8 -4 -3 -6
-12 -10 -19 -10 -14 0 -15 -28 -1 -49 6 -10 4 -12 -5 -6 -10 6 -12 4 -7 -7 3
-9 3 -19 -1 -22 -10 -11 -9 -46 1 -46 6 0 7 -3 3 -7 -4 -5 -13 -8 -18 -8 -6 0
-13 -6 -15 -12 -3 -7 0 -13 7 -13 6 0 8 4 5 10 -4 6 1 7 11 3 12 -4 14 -8 6
-11 -10 -3 -10 -7 -1 -19 7 -8 8 -13 3 -12 -32 6 -41 -2 -38 -33 2 -17 -2 -38
-9 -46 -9 -13 -9 -14 1 -8 15 9 16 -6 0 -22 -7 -7 -8 -12 -3 -12 6 0 10 -14
11 -30 1 -17 -3 -30 -8 -30 -5 0 -6 6 -2 13 6 9 4 9 -8 -1 -9 -7 -15 -21 -13
-30 1 -9 -2 -23 -8 -29 -7 -9 -5 -13 6 -13 10 0 14 9 12 30 -1 17 2 27 7 24 5
-3 7 -9 4 -12 -3 -3 0 -12 7 -20 9 -12 9 -16 -1 -19 -6 -3 -10 -9 -6 -14 3 -5
0 -8 -8 -7 -9 2 -13 -10 -14 -40 -1 -23 -4 -45 -7 -48 -4 -4 -2 -14 3 -24 12
-23 1 -33 -19 -17 -14 11 -14 10 -2 -6 17 -21 23 -87 9 -87 -5 0 -6 5 -3 10 3
6 -1 10 -9 10 -8 0 -15 -8 -15 -17 0 -107 -4 -137 -19 -152 -10 -9 -13 -13 -8
-8 19 14 28 7 15 -10 -8 -9 -9 -14 -3 -10 7 4 11 -6 11 -28 0 -36 -6 -41 -11
-9 -2 10 -8 19 -15 20 -6 1 -7 0 -1 -3 5 -2 7 -10 3 -16 -11 -18 -12 -38 -2
-31 5 3 9 0 9 -5 0 -6 -4 -11 -10 -11 -14 0 -12 -27 3 -33 10 -4 10 -6 0 -6
-7 -1 -13 -6 -13 -12 0 -5 6 -7 13 -3 6 4 3 -2 -7 -14 -11 -12 -15 -22 -9 -22
6 0 7 -17 3 -43 -3 -24 -5 -59 -4 -76 1 -18 0 -30 -3 -27 -3 3 -7 19 -8 36 -1
17 -6 34 -10 38 -5 4 -5 -1 -2 -10 3 -10 2 -20 -4 -24 -7 -4 -6 -10 1 -19 8
-10 7 -14 -2 -18 -10 -4 -10 -6 0 -6 6 -1 12 -6 12 -12 0 -5 -6 -7 -12 -3 -8
5 -7 0 2 -11 12 -15 12 -17 1 -10 -11 6 -13 4 -8 -8 3 -9 2 -19 -4 -23 -7 -4
-6 -10 0 -18 6 -7 9 -15 6 -17 -2 -3 -5 -31 -6 -62 -1 -32 -5 -60 -9 -62 -3
-2 -6 11 -5 30 1 19 -2 32 -7 29 -4 -3 -6 -10 -3 -15 4 -5 0 -9 -7 -9 -9 0 -9
-3 2 -10 12 -8 13 -11 1 -19 -11 -7 -11 -9 0 -14 12 -4 11 -7 -1 -16 -11 -8
-12 -11 -2 -11 8 0 10 -5 5 -12 -12 -21 -12 -38 0 -38 7 0 4 -5 -5 -11 -9 -5
-15 -16 -12 -24 4 -8 11 -12 18 -8 6 4 5 -1 -2 -10 -8 -9 -11 -21 -7 -27 3 -5
-1 -10 -9 -10 -8 0 -18 -4 -21 -10 -3 -5 0 -7 8 -4 8 3 18 -1 23 -8 4 -7 4
-10 -1 -6 -12 11 -35 -11 -28 -28 3 -8 0 -21 -6 -28 -8 -10 -9 -16 -1 -21 7
-4 7 -13 -1 -27 -10 -18 -9 -20 7 -14 17 7 17 6 0 -13 -11 -12 -14 -21 -7 -26
8 -4 8 -12 0 -26 -7 -15 -7 -24 1 -34 8 -9 8 -15 0 -20 -6 -3 -8 -10 -5 -14 2
-5 -2 -17 -10 -27 -13 -18 -14 -18 -12 3 0 12 4 20 8 18 8 -6 5 42 -4 51 -3 4
-5 -3 -2 -14 2 -12 -1 -24 -6 -27 -5 -4 -8 -19 -7 -35 2 -25 5 -27 23 -19 20
10 20 10 1 -5 -11 -9 -24 -16 -29 -16 -4 0 -5 -5 -2 -10 4 -6 10 -8 14 -6 4 3
8 -1 8 -9 0 -8 -4 -12 -8 -9 -4 2 -10 0 -14 -6 -6 -9 8 -14 28 -11 5 1 6 -3 2
-9 -3 -6 -10 -8 -15 -5 -4 3 -10 -2 -13 -9 -3 -8 -1 -17 6 -20 9 -3 8 -5 -1
-5 -10 -1 -10 -6 -1 -23 12 -22 11 -22 -6 -8 -17 14 -17 14 -7 -6 9 -18 8 -26
-8 -44 -23 -27 -26 -38 -6 -21 10 9 17 7 27 -6 12 -16 12 -17 -1 -6 -13 10
-18 6 -33 -18 -9 -17 -12 -27 -7 -24 6 3 10 -1 10 -10 0 -10 -5 -13 -12 -9 -8
5 -8 3 -2 -7 14 -23 11 -90 -4 -84 -7 3 -11 1 -7 -4 3 -5 -1 -12 -7 -15 -7 -3
-4 -4 7 -3 13 1 19 -3 17 -13 -2 -8 -4 -23 -5 -32 -1 -10 -5 -18 -10 -18 -5 0
-7 6 -4 13 3 8 -1 14 -8 14 -13 0 -9 -33 8 -54 6 -9 4 -15 -7 -19 -13 -5 -14
-9 -5 -20 9 -11 8 -14 -7 -14 -16 0 -17 -2 -4 -11 11 -8 12 -12 2 -16 -6 -2
-9 -10 -5 -16 4 -6 7 -24 8 -40 1 -22 -4 -31 -22 -38 -30 -11 -29 -17 2 -14
14 2 23 -1 19 -6 -3 -5 -10 -7 -15 -4 -5 4 -14 -6 -19 -21 -8 -21 -8 -29 2
-36 10 -6 10 -8 1 -8 -8 0 -11 -9 -9 -22 2 -13 -2 -29 -8 -37 -9 -12 -7 -13 8
-7 19 7 19 6 1 -14 -11 -12 -13 -20 -6 -20 7 0 10 -4 6 -10 -3 -5 -13 -7 -23
-4 -10 3 -7 0 5 -8 16 -9 20 -17 13 -28 -5 -8 -5 -19 0 -25 7 -8 5 -12 -5 -12
-8 0 -12 4 -9 8 2 4 1 10 -3 12 -5 3 -9 -10 -10 -29 -1 -19 1 -32 5 -30 4 3 8
-4 8 -14 0 -11 -5 -16 -15 -12 -10 4 -12 1 -6 -9 15 -23 13 -49 -4 -50 -12 0
-11 -3 4 -9 11 -5 14 -9 7 -9 -7 -1 -10 -6 -7 -12 4 -5 -1 -19 -11 -30 -28
-31 -28 -83 0 -60 9 8 13 7 13 -3 0 -8 -8 -13 -19 -11 -11 2 -18 -2 -18 -11 0
-10 5 -12 13 -8 9 6 9 5 0 -7 -13 -16 -21 -85 -11 -95 4 -4 3 -14 -2 -24 -5
-10 -6 -20 -3 -24 3 -3 1 -6 -6 -6 -7 0 -11 6 -8 13 3 8 0 14 -7 14 -6 0 -12
-8 -12 -18 0 -10 3 -17 6 -17 27 2 36 -20 15 -39 -4 -4 -5 -3 -1 4 3 6 1 15
-5 19 -7 4 -9 3 -5 -4 3 -5 0 -13 -6 -15 -10 -4 -10 -6 0 -6 9 -1 10 -7 4 -19
-4 -9 -8 -43 -7 -74 0 -34 -4 -58 -10 -58 -6 0 -7 -3 0 -8 6 -4 10 -21 10 -39
0 -25 -3 -29 -16 -23 -17 10 -18 7 -20 -72 -1 -29 -5 -45 -11 -42 -6 4 -6 -1
1 -13 7 -14 7 -24 -2 -33 -7 -7 -7 -10 -1 -7 7 4 10 -9 8 -39 -2 -37 0 -45 12
-40 9 3 12 1 9 -4 -3 -6 2 -10 12 -10 10 0 25 -5 33 -11 13 -9 12 -10 -2 -5
-10 3 -20 0 -24 -6 -4 -6 -3 -8 3 -5 5 3 23 -2 40 -13 24 -14 34 -16 43 -7 10
9 11 7 6 -9 -4 -14 -2 -21 8 -21 9 0 12 5 9 10 -4 6 -1 7 8 1 8 -5 19 -9 24
-9 6 0 9 -8 9 -18 -1 -9 2 -14 7 -11 5 3 9 1 9 -4 0 -10 30 -9 48 1 8 6 10 3
6 -7 -3 -9 -11 -16 -18 -16 -25 -1 29 -23 61 -25 18 -1 41 -9 51 -17 9 -9 24
-13 32 -10 13 5 13 3 1 -12 -8 -9 -11 -19 -7 -23 3 -3 6 0 6 7 0 7 3 10 7 7 3
-4 13 -1 22 5 10 8 9 4 -3 -10 -11 -12 -16 -25 -13 -29 4 -3 7 -1 7 5 0 7 7
12 15 12 8 0 15 -6 15 -12 0 -9 4 -8 10 2 8 12 10 11 10 -7 0 -24 25 -32 33
-10 3 7 6 5 6 -5 1 -12 6 -15 18 -11 11 4 14 3 9 -5 -4 -7 -2 -12 5 -12 8 0 8
-4 -1 -15 -11 -13 -10 -14 4 -9 9 3 16 10 16 16 0 5 7 2 16 -6 8 -9 19 -14 23
-11 5 2 13 -6 19 -20 8 -18 16 -22 33 -18 13 4 20 2 16 -3 -3 -6 -1 -16 5 -24
8 -12 9 -12 4 2 -3 10 -1 20 4 23 6 4 10 -3 10 -14 0 -23 19 -28 39 -8 10 10
11 8 5 -7 -6 -15 -4 -18 8 -13 16 6 41 -15 51 -43 5 -13 6 -13 6 0 1 10 5 8
16 -7 15 -21 29 -24 51 -10 14 8 24 -1 18 -18 -3 -7 0 -16 7 -21 8 -5 10 -3 5
7 -4 8 -1 6 7 -4 11 -14 16 -15 20 -5 4 10 6 10 6 1 1 -7 11 -13 22 -13 17 0
20 -5 16 -21 -5 -20 -5 -20 15 -2 12 10 18 12 14 5 -5 -9 -3 -13 5 -11 8 1 21
1 29 0 13 -1 13 -3 1 -10 -8 -5 -19 -8 -25 -7 -6 2 -8 1 -3 -1 4 -3 4 -10 0
-16 -4 -7 1 -6 10 2 9 7 17 9 17 3 0 -5 13 -8 30 -7 16 1 28 -1 25 -5 -2 -4 3
-16 11 -26 9 -10 13 -14 10 -7 -4 6 -2 15 4 18 6 4 10 3 9 -2 -1 -4 -1 -15 0
-23 1 -12 3 -12 10 -2 6 10 15 7 40 -13 17 -15 28 -32 24 -37 -3 -7 -1 -8 6
-4 6 4 9 11 6 16 -3 5 -1 11 4 14 5 4 8 -5 7 -18 -3 -21 1 -24 25 -22 16 1 29
-2 29 -7 0 -4 4 -6 8 -3 4 2 14 0 22 -6 12 -8 12 -9 -2 -4 -10 3 -20 0 -24 -6
-4 -7 -3 -8 4 -4 7 4 12 3 12 -2 0 -6 13 -9 30 -8 17 1 32 -4 35 -11 3 -9 0
-11 -7 -7 -7 5 -8 3 -4 -5 5 -7 14 -10 22 -7 8 3 14 1 14 -5 0 -6 7 -9 15 -5
8 3 15 1 15 -5 0 -6 5 -7 10 -4 6 3 10 -1 10 -10 0 -10 -5 -13 -12 -9 -7 4 -9
3 -5 -2 4 -4 18 -9 30 -9 13 0 21 -6 19 -13 -1 -8 2 -11 8 -7 6 3 8 11 5 16
-4 5 -1 9 4 9 6 0 11 -12 11 -27 0 -26 1 -26 15 -7 11 13 14 14 13 4 -2 -11 5
-14 25 -13 29 2 34 -6 15 -26 -9 -10 -9 -12 -1 -7 6 3 14 3 17 -2 3 -5 22 -7
43 -6 21 1 32 0 26 -3 -7 -2 -13 -9 -13 -15 0 -6 7 -7 16 -4 8 3 12 2 9 -4 -3
-6 3 -10 14 -10 11 0 23 -5 26 -10 4 -6 11 -8 16 -5 5 3 6 -1 3 -9 -4 -11 0
-14 15 -11 16 3 21 -1 21 -16 0 -20 8 -23 48 -19 21 1 23 -2 17 -22 -7 -23 -7
-23 9 -3 13 16 15 17 10 3 -6 -18 5 -21 69 -21 13 0 15 -3 8 -10 -18 -18 -12
-28 10 -16 17 8 20 8 14 -1 -5 -9 -1 -10 16 -5 18 4 20 4 10 -4 -12 -8 -12
-12 -2 -25 7 -8 19 -12 27 -9 9 3 13 0 11 -8 -2 -8 -2 -11 0 -6 8 13 25 7 20
-7 -6 -15 20 -15 43 -1 6 4 10 3 9 -2 -5 -28 2 -36 15 -17 14 18 15 17 11 -14
-3 -25 -1 -32 8 -25 15 11 26 10 53 -5 12 -6 25 -8 29 -4 4 4 3 -3 -4 -15 -11
-22 0 -26 27 -9 9 6 12 3 10 -9 -2 -11 8 -21 30 -30 18 -8 30 -10 27 -6 -12
20 27 3 41 -17 8 -12 19 -20 23 -18 4 3 13 1 21 -5 13 -7 13 -9 1 -9 -11 0
-10 -4 4 -14 10 -7 26 -11 36 -9 11 3 19 -3 24 -17 4 -11 12 -19 18 -17 7 3
22 -5 35 -17 13 -11 38 -22 55 -24 51 -4 56 -5 55 -11 -2 -23 6 -31 35 -32 17
0 26 -3 20 -6 -7 -2 -13 -9 -13 -14 0 -4 7 -5 17 -2 10 4 14 2 10 -4 -4 -6 0
-14 9 -17 8 -3 12 -2 9 4 -9 15 4 12 20 -4 8 -7 11 -17 7 -21 -4 -4 6 -5 21
-3 22 4 27 2 23 -9 -4 -9 -2 -11 7 -6 17 11 38 13 32 3 -3 -4 -2 -15 1 -24 4
-12 10 -14 18 -6 9 7 19 4 34 -10 11 -11 26 -21 33 -22 19 -4 38 -22 32 -31
-2 -4 3 -7 11 -7 9 0 16 -5 16 -12 0 -6 7 -3 15 8 15 19 15 19 8 0 -5 -15 -3
-18 10 -13 17 6 25 -7 10 -16 -5 -2 -2 -2 5 -1 7 2 15 -3 19 -12 4 -12 8 -13
14 -3 6 10 12 10 31 1 17 -9 18 -11 3 -7 -18 5 -18 4 -5 -9 8 -8 32 -16 52
-18 25 -1 35 -5 28 -12 -15 -15 -12 -26 6 -26 9 0 12 5 8 13 -4 6 1 5 12 -4
10 -9 25 -14 32 -12 15 6 15 -2 0 -30 -10 -20 -10 -21 6 -8 15 13 19 13 27 0
7 -12 9 -12 9 0 0 19 11 7 14 -16 2 -14 12 -18 39 -18 29 0 37 -4 37 -17 0
-10 5 -18 11 -18 5 0 7 6 4 13 -4 6 3 1 15 -13 12 -14 19 -19 15 -12 -3 6 -2
12 3 12 15 0 22 -28 9 -33 -7 -3 5 -3 26 -2 25 3 35 0 30 -7 -4 -7 0 -9 10 -5
11 4 22 -2 32 -17 12 -17 24 -23 45 -21 16 1 27 -1 24 -6 -3 -5 -10 -7 -15 -4
-5 4 -9 1 -9 -4 0 -6 9 -11 21 -11 13 0 18 -4 13 -12 -5 -9 -2 -8 10 1 15 13
18 12 22 -7 4 -11 13 -23 21 -26 8 -3 11 -1 8 4 -3 6 1 7 9 4 9 -3 13 -10 10
-15 -3 -5 2 -9 11 -9 10 0 13 5 9 12 -4 7 2 5 13 -5 11 -9 23 -14 28 -10 4 5
5 2 1 -4 -4 -7 -2 -13 4 -13 6 0 8 -5 4 -12 -5 -8 0 -7 11 2 17 14 18 14 5
-10 -12 -23 -12 -24 3 -11 15 12 17 11 17 -5 0 -16 2 -17 10 -4 9 14 15 7 11
-14 -1 -5 6 -3 15 5 12 9 15 9 10 2 -4 -8 -2 -14 6 -15 44 -5 81 -20 68 -28
-7 -4 -9 -13 -6 -19 4 -6 12 -8 18 -5 6 4 18 -2 26 -12 13 -16 14 -17 9 -1 -4
9 -2 17 3 17 6 0 10 -5 10 -11 0 -5 4 -8 9 -4 5 3 16 -4 25 -16 13 -20 17 -20
32 -8 10 8 15 9 11 2 -4 -6 -4 -13 0 -16 5 -2 3 -2 -4 -1 -7 2 -15 -2 -19 -8
-4 -6 -3 -8 4 -4 6 3 16 0 24 -7 7 -7 27 -12 45 -11 28 0 31 -2 21 -19 -9 -17
-8 -19 6 -14 9 4 16 1 16 -5 0 -7 5 -6 15 2 11 9 15 9 15 1 0 -7 4 -10 9 -6 5
3 13 0 17 -6 4 -8 3 -9 -4 -5 -7 4 -12 2 -12 -3 0 -10 39 -16 64 -12 5 1 4 -5
-3 -13 -14 -17 -8 -23 34 -29 30 -4 47 -17 41 -33 -3 -8 -1 -14 4 -14 6 0 10
7 10 16 0 8 4 13 10 9 5 -3 7 -13 4 -23 -5 -14 -4 -15 5 -2 10 13 12 13 20 0
5 -8 8 -17 6 -21 -3 -3 10 -6 28 -6 24 1 32 -3 31 -16 -1 -9 2 -15 6 -12 5 3
10 2 13 -2 2 -5 2 -1 0 7 -3 9 4 6 17 -7 21 -24 36 -31 25 -13 -3 6 -1 10 4
10 6 0 11 -9 11 -19 0 -20 26 -34 51 -29 8 2 13 -5 13 -14 -1 -10 3 -16 10
-15 6 1 10 -3 9 -10 -2 -7 4 -10 13 -6 13 5 13 7 2 14 -22 14 -2 10 28 -5 15
-8 32 -13 36 -9 5 3 12 -5 15 -17 4 -16 8 -18 14 -8 7 10 9 11 9 0 0 -8 5 -10
12 -6 8 5 9 2 5 -9 -3 -10 -2 -18 3 -18 20 -3 25 -5 39 -13 10 -6 12 -5 7 2
-4 7 -2 12 3 12 6 0 11 -5 11 -11 0 -8 6 -7 17 2 9 8 14 9 10 3 -4 -7 0 -15 9
-18 10 -4 13 -2 9 7 -4 6 1 3 10 -8 13 -16 19 -18 35 -7 15 9 18 9 15 -1 -4
-8 5 -12 25 -12 16 -1 30 3 30 7 0 4 4 8 10 8 5 0 6 -8 3 -17 -6 -16 -5 -16
10 -4 9 7 17 10 17 6 0 -4 7 -2 15 5 13 11 14 10 9 -5 -5 -13 -4 -16 5 -11 18
11 92 16 86 6 -6 -9 28 -6 44 5 5 3 13 1 16 -5 5 -8 11 -8 20 0 10 8 14 7 18
-2 4 -10 6 -10 6 0 1 6 12 12 26 12 14 0 25 6 26 13 0 6 4 3 9 -8 5 -11 9 -14
9 -6 1 10 4 11 15 2 10 -8 16 -9 21 -1 3 6 12 7 18 3 7 -4 5 2 -3 13 -8 10
-10 16 -6 12 5 -4 15 -3 22 3 8 7 14 7 19 -1 3 -5 1 -10 -4 -10 -6 0 -11 -5
-11 -12 0 -6 11 -1 25 12 16 15 25 19 25 10 0 -8 11 1 24 19 16 21 26 28 29
19 4 -11 7 -10 15 1 8 11 10 11 15 0 4 -9 6 -10 6 -2 1 7 7 10 15 7 8 -3 17 0
22 7 4 7 3 10 -3 6 -6 -4 -13 -1 -16 6 -3 8 7 12 34 11 22 -1 42 2 45 7 3 5
10 6 16 3 7 -4 8 -2 4 5 -6 9 -12 9 -24 0 -15 -12 -16 -11 -2 4 8 9 25 18 38
20 12 2 28 11 35 20 6 9 23 18 37 19 26 4 73 27 54 28 -5 0 -15 -5 -20 -10 -7
-7 -11 -6 -11 4 0 9 10 13 29 12 24 -2 27 1 22 18 -4 16 -3 18 5 7 13 -19 41
-23 34 -5 -3 8 -10 11 -16 7 -6 -3 -7 -1 -3 5 4 7 22 12 41 12 31 0 62 19 33
21 -23 1 26 18 55 18 15 1 27 6 27 12 0 5 -4 8 -8 5 -4 -2 -14 0 -22 6 -12 8
-12 9 2 4 10 -3 20 -1 23 4 3 5 14 7 25 5 13 -2 20 2 20 11 0 14 2 13 16 0 19
-20 21 -20 21 -1 0 8 -4 12 -9 9 -4 -3 -8 0 -8 7 0 6 8 9 20 6 11 -3 17 -1 14
4 -3 6 8 7 26 4 29 -5 31 -4 16 10 -17 18 -21 30 -7 21 5 -4 11 -3 14 1 2 5 2
2 0 -6 -3 -12 -1 -12 14 1 10 8 24 13 31 11 11 -4 12 -1 4 14 -9 16 -7 19 11
20 54 3 67 8 67 25 0 10 5 18 11 18 5 0 7 -5 3 -11 -4 -8 0 -8 15 0 11 7 21
14 21 17 0 3 -4 3 -8 0 -5 -3 -9 2 -9 11 0 13 3 12 17 -4 16 -21 17 -21 29 -1
7 11 8 17 2 14 -5 -4 -12 -2 -15 3 -3 5 8 8 25 7 16 -1 33 2 36 7 4 6 0 7 -8
3 -8 -4 -5 -1 5 8 10 8 23 13 27 10 5 -3 9 0 9 7 0 9 3 9 14 -1 13 -10 14 -7
10 15 -4 25 -3 26 11 11 22 -21 31 -21 14 1 -12 15 -12 16 4 10 11 -4 20 -1
23 8 3 8 12 11 21 8 11 -4 14 -2 9 5 -5 8 0 12 14 12 12 0 18 4 15 10 -4 7 3
7 20 0 17 -7 24 -7 20 0 -3 6 -1 10 5 10 6 0 8 5 5 10 -4 6 -11 7 -17 4 -6 -4
-8 -2 -4 4 3 6 18 8 32 6 22 -4 25 -2 20 13 -4 9 -4 14 0 10 4 -4 13 -2 20 3
6 6 16 10 20 8 11 -3 74 34 74 44 0 4 6 5 14 2 8 -3 17 0 22 7 5 9 9 7 15 -7
7 -17 8 -17 8 -1 1 11 6 15 13 11 7 -4 8 -3 4 5 -4 6 -11 9 -16 6 -5 -3 -11
-1 -14 4 -3 5 7 8 23 7 17 -1 27 2 24 8 -4 5 3 7 15 4 18 -5 20 -3 12 12 -8
15 -6 17 12 12 15 -3 19 -2 14 7 -9 14 15 11 27 -4 5 -6 7 -1 4 11 -4 18 0 22
19 19 21 -2 22 0 12 13 -12 13 -10 14 11 3 15 -8 21 -9 17 -2 -4 6 -3 11 3 11
5 0 11 -5 13 -12 3 -7 7 -5 11 6 4 10 3 15 -3 11 -6 -3 -10 -1 -10 6 0 6 8 9
20 6 11 -3 20 -1 20 5 0 6 7 7 16 4 10 -4 14 -2 11 6 -2 7 -11 12 -18 10 -8
-2 -10 0 -6 4 11 12 37 14 37 3 0 -5 5 -9 11 -9 5 0 7 4 4 10 -6 10 -3 11 34
14 11 0 23 5 28 10 4 5 3 6 -4 2 -6 -3 -14 -2 -18 4 -6 9 8 15 29 11 5 -1 6 6
2 16 -5 16 -4 15 9 -1 8 -11 15 -14 15 -7 0 7 5 9 12 5 7 -5 9 -2 5 9 -8 20
12 27 38 14 18 -9 19 -9 6 7 -8 9 -11 19 -7 23 3 3 6 2 6 -4 0 -20 26 -21 27
-2 1 12 -3 17 -10 13 -7 -4 -8 -3 -4 1 12 14 38 15 30 2 -4 -7 1 -6 10 2 9 7
24 11 32 7 13 -5 14 -2 4 17 -6 12 -8 19 -4 15 5 -4 14 -3 22 4 11 8 17 7 28
-8 15 -19 15 -19 8 0 -4 12 -3 17 4 13 6 -4 16 -1 22 6 8 10 7 14 -4 14 -8 0
-11 -5 -8 -10 4 -6 1 -7 -6 -3 -21 14 -5 22 45 25 14 0 22 5 19 11 -3 6 1 7 9
4 10 -4 16 -1 16 9 0 9 8 13 24 12 18 -2 26 3 30 19 4 16 12 22 28 21 33 -3
48 5 48 24 0 13 7 17 28 13 19 -2 33 2 43 15 13 17 13 17 -4 4 -9 -8 -20 -11
-24 -7 -3 3 -1 6 6 6 7 0 9 5 5 13 -4 6 -3 9 1 4 5 -4 19 0 31 8 22 14 23 14
18 -2 -5 -14 -4 -15 4 -4 5 7 14 11 20 7 6 -3 14 3 17 15 5 14 13 19 26 16 10
-3 17 -1 13 4 -8 13 10 11 26 -3 8 -7 7 -3 -3 8 -15 18 -16 22 -3 27 8 3 17 1
20 -6 2 -7 5 -4 5 5 1 21 47 46 79 43 15 -1 21 3 18 12 -3 7 2 13 12 14 21 2
29 4 62 14 l25 9 -25 7 c-24 7 -24 7 -2 8 12 1 22 6 22 11 0 6 5 10 10 10 6 0
10 -7 10 -16 0 -8 5 -12 11 -9 6 4 8 9 6 11 -3 3 5 16 16 29 16 17 26 21 38
14 23 -12 32 1 11 18 -16 12 -16 13 2 6 13 -4 17 -3 12 5 -5 8 -2 10 9 6 8 -4
22 -1 30 6 8 6 20 8 26 4 9 -5 10 -2 6 9 -7 19 8 32 19 16 5 -8 3 -9 -6 -4 -9
5 -11 4 -6 -4 4 -6 12 -9 17 -5 5 3 6 10 3 16 -5 7 -1 9 9 5 10 -3 17 -2 17 3
0 6 -5 10 -12 10 -6 0 -9 3 -6 6 4 3 17 0 30 -7 20 -11 21 -10 11 2 -10 12 -8
15 8 16 12 1 17 -3 13 -10 -5 -9 -4 -9 5 -1 7 6 13 20 14 31 0 11 6 20 12 21
78 7 97 10 103 17 4 5 -1 5 -10 2 -10 -4 -18 -2 -18 2 0 14 27 20 38 9 6 -6
15 -2 25 12 8 12 20 19 26 15 7 -3 11 -3 10 2 -5 27 1 33 22 23 11 -7 23 -9
27 -6 3 3 1 6 -5 6 -5 0 -10 6 -10 14 0 8 12 13 29 14 27 1 62 24 52 35 -3 2
2 7 11 10 8 4 15 1 15 -6 0 -7 5 -4 11 6 5 9 15 17 20 17 6 0 7 -5 3 -12 -4
-7 -3 -8 4 -4 6 4 9 13 6 20 -3 8 0 17 7 22 8 5 10 3 4 -6 -6 -10 -4 -11 11
-5 10 4 29 8 41 8 12 1 19 5 17 9 -3 5 -9 6 -13 4 -4 -3 -8 1 -8 8 0 8 7 12
15 8 11 -4 13 -1 7 8 -6 10 -4 11 6 4 21 -13 38 -14 46 -2 3 6 1 8 -4 5 -6 -4
-16 0 -22 7 -10 12 -8 13 10 9 15 -4 20 -2 15 5 -3 6 -2 13 3 16 5 4 13 1 17
-5 5 -8 3 -9 -6 -4 -9 5 -11 4 -6 -3 5 -9 14 -7 31 5 12 10 20 22 17 27 -3 5
2 7 11 3 9 -3 17 -1 19 5 2 6 12 12 21 14 9 1 15 -1 13 -5 -3 -4 5 -7 17 -8
12 0 16 1 10 4 -7 3 -13 11 -13 19 0 15 25 15 50 -1 9 -5 6 1 -5 15 l-20 23
23 -12 c20 -11 26 -8 23 12 0 4 4 7 10 7 5 0 8 4 4 9 -3 5 0 13 6 17 7 4 9 3
6 -3 -4 -6 0 -13 8 -17 10 -4 15 1 15 16 0 12 3 18 7 15 3 -4 13 -1 21 6 13
10 14 9 8 -1 -9 -14 15 -13 26 2 3 5 14 11 23 12 9 1 20 6 23 10 4 4 -1 4 -10
1 -10 -3 -20 -2 -23 3 -6 9 8 14 28 11 4 0 7 7 8 16 0 15 2 15 9 -2 5 -11 9
-14 9 -7 1 6 6 12 12 12 5 0 7 -6 3 -12 -5 -10 -3 -10 7 0 12 11 12 14 -1 22
-9 6 -10 10 -3 10 6 0 15 -4 18 -10 3 -5 12 -10 18 -10 8 0 8 3 -2 9 -18 12
-2 20 32 16 23 -3 26 -1 16 11 -9 11 -8 15 4 20 9 3 22 2 29 -2 8 -5 8 -1 -2
11 -14 17 -14 18 10 5 24 -13 24 -12 10 5 -14 17 -14 18 10 5 23 -12 24 -12
11 4 -8 9 -10 16 -5 14 16 -4 55 23 48 34 -4 7 -2 8 5 4 9 -6 9 -11 -1 -23
-12 -15 -11 -15 9 -3 12 8 19 18 16 24 -4 5 0 7 8 4 8 -3 23 0 33 8 11 7 23
11 27 8 5 -3 6 1 4 8 -4 10 3 14 22 13 20 0 27 5 26 15 -2 10 5 16 20 17 33 2
56 8 64 18 4 4 3 5 -4 1 -6 -3 -14 -2 -17 3 -7 11 22 23 35 15 5 -3 9 1 9 9 0
8 7 18 16 21 13 5 14 4 6 -7 -9 -10 -8 -14 3 -14 7 0 14 3 13 6 -2 20 4 31 18
31 9 0 13 -5 9 -13 -4 -6 0 -4 9 7 8 10 20 15 27 10 8 -4 10 -3 5 4 -4 7 -2
12 4 12 7 0 10 6 7 13 -3 8 1 14 9 14 8 0 14 -4 14 -9 0 -4 5 -8 11 -8 5 0 8
4 5 8 -9 15 10 31 44 37 19 3 40 11 45 17 7 8 6 9 -2 4 -7 -4 -13 -4 -13 1 0
4 12 13 26 20 23 11 24 10 12 -5 -11 -13 -11 -15 2 -7 8 5 20 16 27 26 7 10
23 15 38 13 22 -2 24 0 14 12 -6 8 -9 17 -5 21 3 3 6 2 6 -4 0 -6 7 -14 16
-17 14 -5 15 -4 4 9 -10 12 -10 15 2 15 8 0 19 -5 25 -11 8 -8 13 -7 18 2 5 7
4 10 -2 6 -6 -4 -16 -1 -22 6 -8 11 -4 13 22 10 17 -3 28 -1 22 4 -5 4 -11 14
-13 22 -3 12 0 12 12 1 15 -11 20 -7 17 13 -1 5 4 5 11 1 23 -15 34 -12 36 10
1 16 -1 18 -8 6 -6 -9 -10 -10 -10 -3 0 6 5 15 10 18 6 4 8 11 5 16 -4 5 0 9
7 9 9 0 9 3 -2 10 -8 5 -11 10 -6 10 6 0 1 7 -10 15 -19 15 -19 15 1 8 18 -6
18 -5 6 10 -11 14 -11 17 0 17 9 1 6 6 -6 13 -22 13 -28 42 -8 42 6 0 14 3 18
7 4 3 -4 5 -18 4 -17 -2 -24 1 -20 10 2 7 12 10 21 7 10 -3 13 -1 7 4 -15 12
-19 47 -4 37 8 -4 10 -3 5 5 -5 8 -12 9 -20 2 -9 -8 -12 -2 -10 25 2 25 0 33
-9 27 -9 -5 -9 -3 0 8 10 12 10 18 0 29 -9 10 -9 11 1 6 6 -4 12 -2 12 3 0 6
-5 11 -11 11 -8 0 -7 6 2 17 10 11 10 14 2 9 -16 -9 -16 -1 -2 26 7 13 7 18 1
14 -6 -3 -13 -2 -17 4 -4 6 -11 8 -16 5 -5 -3 -6 1 -3 10 5 13 9 13 23 3 14
-11 14 -11 4 3 -7 9 -9 20 -5 24 4 5 2 5 -4 2 -10 -6 -13 14 -17 141 -1 12 -7
22 -15 22 -7 0 -10 5 -7 10 4 6 10 8 14 6 4 -3 7 9 6 25 0 26 -2 27 -12 13 -7
-9 -10 -21 -7 -25 3 -5 1 -9 -4 -9 -5 0 -8 19 -8 42 1 24 -3 49 -9 57 -7 11
-7 13 3 7 18 -11 14 5 -5 20 -13 10 -13 12 -3 9 11 -4 15 2 15 19 0 17 -3 22
-12 15 -7 -7 -14 -6 -19 2 -4 7 -3 9 2 6 6 -3 15 3 21 13 10 15 9 17 -6 13
-23 -6 -37 13 -15 21 10 4 13 2 8 -7 -4 -7 -3 -9 2 -4 5 5 9 12 9 15 0 4 4 14
9 22 7 12 6 13 -5 3 -28 -27 -34 -13 -34 78 0 104 -5 119 -32 98 -16 -13 -17
-12 -5 3 9 12 10 18 2 23 -8 5 -6 13 6 26 17 19 17 20 -2 13 -17 -7 -17 -6 -5
9 7 9 10 17 5 17 -5 0 -10 18 -11 41 -2 24 1 38 7 34 5 -3 7 1 4 9 -3 8 -13
12 -22 10 -15 -5 -15 -4 0 6 16 10 15 45 -1 35 -4 -2 -8 2 -8 10 0 8 4 12 9 9
4 -3 5 3 1 12 -4 10 -2 15 4 11 5 -3 10 0 10 8 0 20 -7 19 -24 -2 -13 -17 -14
-16 -10 5 3 12 2 22 -1 22 -4 0 -8 27 -9 60 -1 43 2 58 10 54 7 -3 4 1 -6 9
-20 17 -29 48 -28 95 1 25 -2 32 -11 27 -7 -4 -2 3 12 14 19 16 20 20 6 14
-13 -4 -17 -3 -12 5 4 7 2 12 -5 12 -8 0 -8 4 1 15 9 11 9 15 1 15 -8 0 -9 5
-3 17 7 12 5 25 -6 42 -16 25 -16 25 2 11 18 -14 19 -14 9 5 -6 11 -9 28 -8
37 2 11 -2 15 -12 11 -12 -5 -12 -7 -1 -15 10 -8 10 -9 -2 -5 -8 2 -15 12 -15
23 0 10 -4 25 -8 32 -6 8 0 15 15 21 l23 10 -23 0 c-20 1 -21 4 -12 21 6 11 7
20 1 20 -5 0 -6 14 -1 35 5 20 4 33 -1 29 -5 -3 -9 2 -9 10 0 9 6 16 13 16 9
0 9 2 -1 9 -8 4 -13 11 -13 15 3 21 0 28 -12 23 -9 -3 -12 9 -10 49 1 34 -3
54 -10 54 -6 0 -2 7 9 16 10 8 13 12 6 9 -10 -5 -12 0 -9 24 5 30 -7 44 -15
19 -3 -7 -7 -5 -11 6 -4 9 -3 15 2 12 11 -7 33 18 24 27 -3 4 -11 7 -17 7 -6
0 -4 -5 4 -10 13 -8 13 -10 -1 -10 -9 0 -20 7 -23 16 -3 8 -2 12 4 9 6 -3 10
-2 10 4 0 5 -6 12 -12 14 -10 4 -9 6 1 6 11 1 10 6 -5 22 l-19 22 25 -13 c24
-13 24 -12 10 5 -8 10 -14 28 -12 39 2 17 1 18 -7 6 -6 -8 -11 -10 -11 -4 0 5
5 15 12 22 9 9 9 12 -2 12 -11 0 -11 3 -2 12 18 18 14 32 -5 17 -15 -13 -15
-11 1 19 9 17 12 32 6 32 -5 0 -9 3 -9 8 3 19 -2 33 -11 27 -10 -6 -11 15 -13
167 0 31 -3 55 -7 53 -3 -2 -12 0 -20 6 -9 5 -10 9 -4 9 7 0 15 7 18 16 5 14
4 15 -9 4 -8 -7 -15 -9 -15 -4 -5 82 -4 111 3 107 5 -3 5 3 -1 13 -5 11 -8 37
-7 58 2 26 0 34 -6 25 -7 -11 -9 -11 -9 4 0 9 -6 17 -12 17 -9 0 -8 4 2 10 10
6 11 10 3 10 -7 0 -13 5 -13 11 0 6 8 8 18 5 15 -5 15 -5 -1 8 -10 8 -18 25
-17 38 4 40 1 50 -12 42 -10 -6 -10 -5 -1 7 18 23 3 116 -17 104 -10 -6 -8 15
3 31 4 7 0 17 -8 24 -10 8 -11 18 -5 35 5 13 6 25 3 28 -3 3 -5 22 -5 41 0 32
-7 40 -29 38 -3 -1 -6 6 -6 13 0 11 4 12 13 4 8 -7 14 -6 20 2 5 8 3 9 -6 4
-10 -6 -12 -4 -7 8 3 9 1 19 -5 23 -7 5 -8 2 -3 -6 5 -8 4 -11 -2 -7 -11 7
-11 52 0 63 4 4 2 13 -4 21 -9 10 -8 17 2 30 12 14 12 16 0 8 -11 -6 -13 -3
-9 13 5 16 2 22 -10 22 -14 1 -14 3 3 17 18 14 18 15 1 9 -14 -5 -17 -2 -12 9
19 47 19 50 2 30 -10 -11 -15 -14 -11 -7 3 6 0 12 -7 12 -8 0 -9 3 -3 8 15 11
17 32 3 32 -6 0 -3 7 8 16 10 8 14 13 8 10 -7 -3 -18 1 -25 10 -7 8 -8 14 -3
13 20 -4 28 2 15 10 -12 8 -13 15 -3 35 7 16 8 27 1 31 -5 4 -7 11 -4 16 3 5
-1 6 -10 3 -11 -5 -14 -2 -9 10 3 9 11 13 18 9 6 -4 5 1 -3 10 -14 18 -26 24
-17 8 3 -5 -2 -15 -11 -22 -15 -12 -16 -12 -8 1 14 22 14 64 1 73 -8 5 -7 10
4 18 12 8 12 12 2 16 -10 4 -9 10 5 26 10 11 13 17 6 14 -18 -11 -24 8 -13 37
5 14 6 26 2 26 -4 0 -8 10 -9 22 -2 23 -21 40 -38 32 -5 -3 -1 2 9 10 11 9 14
16 7 16 -7 0 -9 5 -6 10 4 6 1 18 -7 27 -10 14 -10 15 0 9 16 -10 13 25 -3 36
-6 5 -4 8 5 8 9 1 6 6 -9 14 -23 13 -24 14 -4 20 20 6 24 30 9 55 -5 8 -3 17
5 23 12 8 11 9 -1 5 -10 -2 -14 -15 -13 -35 1 -18 -3 -32 -8 -32 -6 0 -8 4 -5
9 4 5 0 12 -6 14 -10 4 -10 6 0 6 10 1 10 6 1 22 -6 12 -7 19 -2 16 5 -3 14 2
20 12 9 14 8 18 -3 18 -7 0 -10 -5 -7 -10 3 -6 2 -7 -4 -4 -5 3 -9 25 -7 49 1
24 -2 46 -9 50 -7 4 -7 11 -1 20 5 7 9 20 9 28 -1 21 -25 61 -33 56 -4 -2 -6
21 -6 52 1 33 -3 60 -10 64 -7 5 -6 8 3 8 11 0 9 4 -5 15 -12 9 -13 13 -4 10
12 -4 16 1 15 22 0 16 -4 33 -8 40 -4 6 -1 14 5 17 7 3 4 4 -7 1 -17 -4 -20 0
-20 33 0 20 3 42 8 49 4 6 3 14 -3 18 -5 3 -10 17 -10 30 0 13 -6 26 -12 28
-8 3 -5 6 5 6 10 1 15 6 12 11 -4 6 -12 7 -18 4 -7 -4 -9 -4 -5 1 4 4 3 16 -2
25 -7 13 -5 21 5 30 8 7 15 18 15 24 0 6 -5 3 -11 -6 -18 -31 -25 -19 -25 39
1 31 -4 62 -10 68 -8 8 -7 14 2 23 14 13 8 42 -8 42 -6 0 -6 -6 1 -14 9 -11 9
-16 0 -22 -7 -4 -9 -3 -5 4 3 6 -1 15 -10 20 -15 9 -15 10 5 17 11 3 19 11 16
16 -4 5 -1 9 6 9 7 0 9 3 6 6 -4 4 -14 1 -23 -7 -16 -13 -16 -12 -5 9 6 12 9
22 5 22 -3 0 0 8 7 18 13 15 12 16 -3 3 -10 -7 -16 -17 -13 -21 3 -5 1 -11 -3
-14 -10 -6 -8 56 2 73 4 6 2 11 -4 11 -7 0 -8 6 0 19 7 13 7 22 0 26 -14 9
-12 52 3 59 6 3 -1 4 -18 1 -16 -2 -24 -2 -17 1 6 3 9 11 6 16 -4 7 -2 8 4 4
7 -4 12 -2 12 3 0 6 -4 11 -10 11 -5 0 -10 7 -10 15 0 8 -3 15 -7 15 -5 0 -8
20 -9 45 0 29 3 42 10 38 6 -4 5 0 -2 9 -7 8 -10 23 -6 32 4 10 1 16 -9 16 -8
0 -18 7 -21 16 -5 14 -4 15 9 4 21 -18 30 -6 10 14 -9 9 -12 16 -6 16 6 0 11
4 11 10 0 5 -7 6 -17 3 -10 -4 -14 -2 -10 4 4 6 1 14 -5 16 -10 4 -10 6 0 6 7
1 10 6 6 13 -4 7 -3 8 5 4 6 -4 9 -12 6 -17 -4 -5 -2 -9 4 -9 5 0 9 9 8 19 0
11 -4 18 -7 16 -3 -2 -12 0 -20 6 -9 5 -10 9 -3 9 8 0 9 9 3 32 -7 21 -6 36 1
45 7 8 8 13 1 13 -5 0 -9 17 -7 38 3 38 -9 62 -29 62 -6 -1 -5 -6 4 -13 8 -7
16 -21 18 -32 2 -15 -2 -12 -16 10 -20 30 -20 30 2 48 13 11 15 15 5 12 -11
-4 -18 1 -22 14 -3 12 -2 21 2 21 4 0 7 9 7 20 0 11 -7 20 -16 20 -12 0 -13 2
-1 9 8 5 10 14 6 21 -4 7 -2 16 6 21 8 5 9 9 3 9 -6 0 -10 18 -9 44 1 35 -2
42 -15 39 -10 -3 -17 2 -17 11 0 8 4 13 9 10 4 -3 8 0 8 5 0 6 -5 11 -11 11
-7 0 -9 11 -6 27 3 15 1 37 -3 48 -5 12 -5 28 0 35 5 7 4 24 -1 38 -7 17 -6
29 3 41 12 14 11 15 -5 2 -24 -19 -37 -1 -30 41 3 21 1 28 -7 23 -9 -5 -9 -1
0 16 10 17 10 24 1 27 -6 2 -8 9 -4 15 9 16 10 57 1 57 -4 0 -8 7 -8 16 0 8 4
13 8 10 5 -3 9 1 9 8 0 7 -6 13 -13 13 -7 0 -11 -3 -9 -7 2 -3 0 -12 -4 -18
-8 -13 -11 12 -14 120 -1 32 -6 58 -11 58 -5 0 -3 7 4 15 13 15 3 21 -25 15
-5 -1 -4 4 3 11 13 15 17 33 4 25 -13 -8 -11 27 2 43 8 11 8 13 0 8 -15 -8
-25 65 -11 74 5 4 5 9 -1 13 -11 6 -9 37 3 55 3 5 1 12 -5 16 -6 4 -7 11 -4
17 4 7 2 8 -5 4 -6 -4 -9 -11 -7 -15 3 -4 -2 -8 -10 -8 -10 0 -11 4 -4 11 12
12 14 29 2 22 -7 -4 -14 78 -16 201 0 41 -4 59 -10 53 -14 -14 -23 -12 -23 5
0 8 4 12 9 9 4 -3 8 0 8 5 0 6 -4 11 -8 11 -13 0 -11 83 1 99 9 11 9 13 1 8
-7 -4 -17 5 -24 23 -7 17 -18 30 -24 30 -7 0 -7 3 -1 8 14 10 17 32 4 32 -6 0
-1 9 12 20 13 10 18 19 12 20 -7 0 -13 -5 -13 -12 0 -22 -14 3 -16 27 0 15 3
22 10 18 6 -4 5 0 -2 9 -9 12 -10 18 -2 23 8 5 8 11 0 20 -7 8 -9 19 -5 24 3
6 1 19 -4 30 -8 14 -8 21 2 25 6 2 3 4 -8 3 -11 -1 -20 3 -20 8 0 6 5 9 12 7
7 -2 13 2 13 8 0 6 -4 9 -9 6 -4 -3 -17 4 -27 17 -11 12 -12 16 -4 10 13 -10
16 -8 16 8 0 10 -3 19 -6 19 -10 0 -8 75 2 88 8 9 7 11 -3 7 -8 -3 -20 5 -28
17 -10 18 -10 20 0 11 18 -17 34 -16 20 1 -6 7 -8 22 -4 32 6 17 5 17 -10 5
-10 -8 -20 -11 -24 -7 -3 3 -2 6 3 6 5 0 9 13 9 29 0 18 -4 27 -12 24 -8 -3
-10 3 -6 19 4 18 3 20 -6 8 -8 -11 -11 -12 -11 -2 0 7 -5 10 -10 7 -13 -8 -9
17 5 28 6 5 3 7 -7 3 -10 -3 -18 -1 -18 5 0 6 -4 7 -10 4 -14 -8 -13 8 1 22 9
9 7 10 -9 6 -12 -3 -19 -10 -15 -16 4 -6 1 -7 -6 -3 -7 5 -10 10 -7 13 3 3 -1
15 -10 27 -11 16 -26 21 -62 23 -65 2 -64 2 -56 16 6 9 5 9 -7 0 -8 -7 -30
-10 -48 -8 -19 2 -41 0 -51 -5 -11 -6 -21 -5 -28 2 -8 8 -15 8 -24 1 -7 -6
-20 -9 -29 -8 -9 2 -16 -3 -16 -10 0 -7 7 -11 16 -9 9 2 3 -2 -14 -10 -18 -8
-31 -10 -34 -5 -1 6 -12 3 -22 -7 -14 -12 -16 -21 -8 -30 8 -9 4 -12 -14 -10
-19 2 -23 -1 -20 -15 4 -14 0 -17 -21 -15 -22 3 -24 1 -15 -16 5 -10 6 -18 2
-17 -20 3 -23 -3 -13 -23 11 -22 11 -23 -5 -3 -13 17 -17 18 -25 5 -5 -8 -6
-18 -4 -22 3 -4 1 -8 -5 -8 -5 0 -11 5 -13 10 -2 6 -9 1 -15 -10 -10 -15 -10
-19 0 -16 6 1 9 1 4 -1 -4 -3 -4 -10 -1 -15 4 -6 2 -8 -4 -5 -5 4 -17 4 -26 1
-15 -6 -15 -8 1 -21 10 -8 12 -12 5 -8 -7 4 -20 1 -29 -7 -12 -9 -15 -9 -9 -1
5 9 2 11 -8 7 -9 -3 -15 -9 -14 -12 2 -23 -5 -32 -24 -32 -15 0 -19 -3 -11 -8
8 -5 9 -12 2 -22 -8 -13 -10 -13 -19 0 -8 13 -10 12 -10 -3 0 -12 -4 -16 -12
-11 -8 5 -7 1 2 -10 13 -16 12 -18 -10 -14 -13 1 -25 -3 -27 -10 -3 -7 1 -10
11 -6 9 3 16 1 16 -5 0 -6 -3 -10 -7 -10 -5 1 -15 1 -23 0 -13 -1 -13 -2 0
-11 8 -5 10 -10 5 -10 -6 0 -17 6 -24 13 -11 10 -13 9 -8 -5 4 -10 2 -18 -4
-18 -6 0 -8 -4 -4 -9 3 -5 1 -12 -5 -16 -5 -3 -10 -1 -10 4 0 6 -5 11 -11 11
-6 0 -9 -7 -5 -15 3 -8 1 -15 -5 -15 -6 0 -8 -4 -4 -9 3 -6 -3 -8 -15 -6 -11
2 -23 -1 -26 -7 -5 -7 -2 -8 6 -3 10 6 12 4 7 -9 -4 -10 -7 -19 -7 -22 0 -2
-7 -1 -16 3 -11 4 -15 1 -12 -13 2 -15 -3 -19 -24 -19 -15 1 -25 -1 -23 -4 3
-2 -1 -11 -8 -19 -8 -11 -8 -14 0 -9 6 4 15 2 19 -4 4 -7 3 -9 -4 -5 -6 3 -13
2 -17 -4 -4 -6 -10 -8 -15 -5 -4 3 -10 -5 -13 -16 -4 -15 -11 -20 -21 -16 -15
6 -22 -10 -17 -37 1 -5 -5 -6 -14 -3 -8 4 -16 2 -16 -3 -1 -6 -3 -14 -4 -20
-1 -5 -3 -13 -4 -17 -1 -5 -5 -1 -11 7 -8 12 -10 12 -16 -3 -3 -9 -10 -15 -14
-12 -5 3 -7 -6 -6 -19 2 -17 -1 -23 -10 -19 -8 3 -14 -1 -14 -10 0 -9 -5 -19
-12 -23 -8 -5 -9 -2 -4 11 5 15 4 16 -9 5 -8 -7 -15 -21 -15 -31 0 -12 -5 -16
-15 -13 -9 4 -19 -3 -26 -20 -7 -14 -18 -26 -26 -26 -16 0 -17 -22 0 -40 10
-12 9 -12 -4 -2 -9 6 -20 8 -24 4 -5 -4 -5 -1 0 7 5 9 4 12 -3 7 -7 -4 -12
-16 -12 -27 0 -10 -4 -18 -9 -16 -5 1 -19 -10 -33 -24 -13 -14 -30 -23 -38
-21 -13 5 -13 3 -1 -12 12 -15 12 -17 0 -14 -8 2 -13 -3 -11 -11 2 -11 0 -12
-11 -3 -12 10 -14 8 -12 -12 3 -20 -1 -24 -19 -20 -15 2 -23 -1 -23 -10 0 -9
7 -12 16 -8 21 7 12 -2 -18 -18 -15 -8 -21 -8 -17 -1 4 6 4 11 1 11 -3 0 -11
-13 -16 -29 -8 -21 -15 -28 -26 -24 -11 4 -14 2 -9 -5 4 -7 1 -15 -8 -18 -9
-3 -13 -11 -9 -18 4 -6 -1 -5 -10 3 -15 12 -17 11 -17 -10 0 -13 -5 -31 -11
-39 -9 -12 -10 -10 -6 8 4 19 3 21 -8 12 -8 -6 -11 -18 -8 -26 3 -8 2 -14 -3
-13 -22 4 -45 -2 -40 -10 9 -15 -4 -40 -19 -35 -14 6 -28 -23 -18 -38 3 -6 1
-8 -4 -5 -13 8 -35 -17 -25 -29 4 -4 0 -3 -9 4 -13 10 -19 9 -29 -3 -7 -8 -10
-21 -7 -29 6 -14 -9 -16 -29 -3 -7 4 -10 -2 -8 -18 1 -14 -2 -27 -7 -31 -5 -3
-6 -10 -3 -16 4 -7 2 -8 -5 -4 -9 6 -9 12 1 24 11 15 11 15 -4 4 -13 -10 -17
-10 -22 0 -3 7 -3 2 0 -11 5 -18 3 -22 -7 -15 -12 7 -12 5 -1 -9 12 -14 11
-16 -7 -12 -15 3 -21 -1 -21 -15 0 -10 -5 -22 -12 -26 -7 -4 -8 -3 -4 4 4 7 2
12 -5 12 -6 0 -9 -8 -6 -20 3 -11 1 -18 -4 -14 -5 3 -9 1 -9 -5 0 -6 -7 -7
-17 -4 -11 4 -14 3 -9 -5 4 -7 2 -12 -4 -12 -6 0 -8 -4 -5 -10 5 -9 -23 -15
-48 -11 -4 1 0 -11 10 -26 16 -26 17 -27 0 -14 -15 12 -17 11 -18 -5 0 -18 -1
-18 -9 1 l-9 20 -1 -20 c-2 -11 -2 -23 -1 -27 0 -5 -10 -8 -23 -8 -16 0 -23
-5 -22 -16 1 -21 -31 -27 -38 -7 -4 9 -2 11 6 7 7 -5 8 -3 4 5 -5 7 -15 10
-23 7 -8 -3 -12 -2 -8 3 8 14 -6 42 -18 34 -6 -3 -7 -1 -3 5 4 7 9 20 11 31 3
14 -1 18 -16 14 -13 -4 -19 0 -19 12 0 10 -8 24 -17 32 -10 8 -12 12 -5 8 7
-4 12 0 12 9 0 10 -6 13 -16 9 -14 -5 -15 -3 -4 17 10 18 9 21 -1 15 -9 -6
-10 -3 -5 10 6 16 4 16 -11 4 -17 -13 -17 -13 -1 12 15 24 15 25 -5 25 -15 -1
-23 6 -25 22 -2 12 -8 20 -13 17 -9 -6 -13 8 -10 34 2 7 -2 10 -8 6 -7 -4 -11
7 -11 29 0 20 -3 35 -7 35 -5 -1 -15 -1 -23 0 -13 1 -13 2 0 11 10 6 11 10 3
10 -7 0 -13 5 -13 11 0 5 6 7 13 3 6 -4 3 3 -8 15 -11 13 -19 25 -17 27 4 7
-10 6 -16 -2 -4 -4 0 -4 8 1 8 5 12 5 8 0 -4 -4 -3 -14 3 -21 7 -8 6 -14 -2
-20 -7 -4 -9 -3 -6 3 4 6 0 16 -7 22 -8 7 -13 22 -10 35 2 12 -3 31 -12 42 -8
10 -13 14 -10 7 4 -6 2 -14 -3 -18 -6 -3 -8 3 -6 15 2 11 -2 20 -8 20 -7 0 -6
4 3 10 8 5 10 10 3 10 -6 0 -10 8 -8 18 3 22 -4 34 -16 26 -6 -4 -6 -10 1 -19
8 -9 7 -14 -3 -18 -11 -4 -13 2 -11 24 2 16 -1 29 -6 29 -6 0 -9 3 -9 8 1 4 1
14 0 22 -1 12 -3 12 -10 2 -7 -11 -9 -10 -14 3 -4 9 -3 13 3 10 6 -3 10 -1 10
4 0 6 -5 11 -11 11 -6 0 -8 9 -4 21 5 15 4 19 -4 14 -8 -4 -10 1 -7 19 3 19 1
23 -11 19 -11 -4 -11 -8 -3 -13 8 -5 8 -10 2 -14 -13 -8 -19 10 -17 50 1 25
-3 30 -17 26 -14 -3 -18 2 -18 22 0 19 -4 25 -12 20 -10 -6 -10 -5 -1 7 10 13
10 19 -3 35 -14 18 -14 17 -3 -6 11 -23 11 -24 -5 -11 -10 8 -15 23 -12 34 3
13 0 17 -10 13 -10 -4 -13 -2 -7 7 12 20 12 34 -3 34 -7 0 -10 -5 -7 -11 3 -6
0 -6 -7 1 -7 7 -13 26 -12 43 1 26 -7 34 -29 32 -3 -1 -6 5 -6 13 0 8 4 12 9
9 4 -3 8 -1 8 3 0 5 -12 14 -27 21 -19 7 -21 10 -6 6 18 -4 22 -2 17 11 -4 9
-14 15 -24 12 -19 -5 -24 23 -6 35 6 5 1 8 -12 8 -21 0 -22 1 -8 16 9 8 16 18
16 22 0 3 -5 1 -12 -6 -17 -17 -33 -15 -19 2 9 11 9 16 0 22 -8 5 -9 3 -4 -6
5 -9 4 -11 -4 -6 -9 6 -9 11 0 22 9 11 9 14 0 14 -7 0 -10 4 -6 10 3 5 -7 16
-22 24 -15 8 -21 15 -13 16 10 0 7 5 -8 16 -18 13 -21 19 -11 30 6 8 9 17 5
21 -3 3 -6 0 -6 -7 0 -7 -3 -10 -7 -6 -4 4 -8 15 -8 24 0 9 -6 16 -12 15 -12
-3 -18 12 -25 62 -2 11 -14 25 -26 31 -17 8 -20 13 -10 17 10 4 10 6 0 6 -10
1 -10 6 -2 22 11 19 10 20 -10 9 -15 -8 -20 -8 -16 -1 4 6 2 11 -5 11 -6 0 -9
8 -6 20 3 13 0 20 -8 20 -8 0 -17 4 -20 10 -3 5 0 7 8 4 8 -3 14 2 14 11 0 11
-6 13 -20 9 -17 -5 -17 -3 -7 16 8 15 8 20 1 16 -7 -5 -11 3 -11 21 0 18 -3
24 -8 15 -12 -18 -29 24 -28 65 1 20 -3 28 -9 23 -5 -4 -15 -2 -22 5 -10 11
-10 15 0 18 7 3 1 6 -13 7 -23 1 -23 2 -5 10 l20 9 -20 0 c-17 1 -17 3 -5 11
13 8 12 10 -3 10 -10 0 -15 5 -12 10 3 6 2 10 -4 10 -5 0 -8 14 -6 30 4 32 -3
38 -24 18 -10 -11 -12 -10 -9 2 2 8 8 18 13 22 6 4 2 8 -8 8 -10 0 -15 5 -12
10 3 6 1 10 -5 10 -6 0 -8 5 -5 10 4 6 11 7 17 4 6 -4 8 -2 5 4 -4 5 -16 8
-27 5 -13 -3 -20 0 -21 8 -4 61 -6 80 -12 86 -4 3 -7 1 -7 -5 0 -7 -5 -12 -10
-12 -7 0 -7 7 1 21 6 12 7 19 2 16 -23 -14 -66 50 -51 77 5 10 7 20 4 23 -3 4
-6 1 -6 -6 0 -9 -4 -9 -14 1 -10 9 -11 15 -2 20 7 5 5 8 -6 8 -11 0 -15 6 -11
19 3 10 0 22 -6 25 -5 4 -8 14 -5 24 5 14 4 14 -4 2 -7 -9 -7 -19 -2 -25 6 -8
5 -12 -4 -12 -7 0 -12 10 -11 21 2 30 -14 58 -28 49 -8 -4 -8 -2 1 9 10 13 10
18 1 24 -8 4 -9 3 -5 -4 4 -7 2 -12 -3 -12 -14 0 -14 13 -1 26 13 13 -3 35
-27 37 -21 1 -24 12 -9 36 6 9 5 12 -1 8 -12 -8 -24 16 -19 36 1 6 1 9 -1 5
-10 -17 -35 -8 -31 10 4 13 -1 18 -21 20 -14 1 -28 7 -29 12 -2 6 -9 7 -14 4
-7 -4 -8 -2 -4 5 6 9 11 9 21 1 10 -8 15 -8 21 1 4 8 3 9 -4 5 -7 -4 -12 -2
-12 4 0 7 -7 10 -15 7 -8 -4 -17 -2 -19 2 -3 5 -19 7 -36 5 -16 -2 -30 1 -30
6 0 5 9 7 19 5 15 -3 18 0 14 13 -4 10 -8 12 -11 4 -2 -7 -9 -9 -15 -5 -18 11
-38 12 -31 2 3 -5 0 -9 -5 -9 -6 0 -11 5 -11 11 0 8 -6 7 -17 -2 -9 -8 -14 -9
-11 -4 4 6 -13 10 -43 10 -27 0 -49 -3 -49 -7 0 -5 5 -8 12 -8 6 0 8 -3 5 -6
-4 -4 -19 1 -34 11 -20 13 -24 14 -16 3 14 -17 8 -28 -16 -28 -14 0 -14 2 -1
10 11 7 12 10 2 10 -8 0 -16 -9 -19 -21 -4 -16 -8 -17 -14 -7 -7 11 -10 10
-21 -1 -11 -11 -11 -13 0 -6 11 6 12 3 3 -14 -7 -11 -14 -21 -17 -21 -3 0 -2
5 1 10 3 6 1 10 -4 10 -6 0 -11 -4 -11 -10 0 -5 -6 -9 -12 -7 -7 1 -12 -6 -10
-15 2 -12 -3 -16 -16 -13 -11 2 -19 -3 -19 -10 0 -8 5 -11 11 -8 6 4 5 -1 -3
-10 -7 -9 -10 -17 -6 -17 4 0 2 -6 -4 -13 -6 -8 -9 -17 -6 -20 3 -4 2 -5 -2
-2 -12 9 -12 36 -1 29 7 -5 8 -2 4 5 -14 22 -26 -4 -30 -64 -1 -20 -8 -31 -20
-33 -11 -2 -15 -9 -12 -19 5 -11 2 -13 -9 -9 -9 3 -13 2 -10 -3 3 -6 -3 -14
-12 -20 -10 -6 -13 -11 -7 -11 7 0 14 -7 18 -15 4 -12 2 -13 -12 -6 -16 8 -18
6 -16 -20 2 -26 -1 -29 -19 -24 -18 5 -19 4 -7 -4 14 -10 7 -15 -13 -12 -5 1
-6 -3 -2 -9 3 -6 12 -7 18 -4 8 5 8 3 0 -7 -7 -7 -13 -21 -13 -31 0 -10 -5
-18 -11 -18 -5 0 -7 4 -4 10 3 6 -1 7 -10 3 -9 -3 -13 -9 -8 -12 12 -9 13 -42
0 -34 -6 4 -8 0 -4 -10 3 -10 2 -17 -3 -17 -5 0 -7 -8 -3 -17 5 -15 3 -15 -11
2 -13 14 -16 15 -13 4 3 -9 1 -22 -4 -30 -7 -12 -9 -12 -9 0 0 8 -2 12 -5 9
-9 -8 6 -38 16 -32 5 3 6 -2 3 -11 -6 -14 -8 -14 -20 2 -13 17 -14 17 -7 -1 5
-14 3 -17 -6 -11 -10 6 -11 3 -2 -13 8 -16 7 -23 -7 -33 -15 -13 -16 -12 -3 4
7 9 9 17 3 17 -16 0 -22 -26 -9 -39 7 -7 8 -12 2 -11 -21 4 -33 -1 -39 -16 -5
-14 -4 -15 8 -5 11 9 16 9 22 0 4 -7 3 -9 -3 -6 -15 9 -31 -14 -27 -38 3 -20
3 -20 -12 -1 -13 18 -14 17 -14 -18 0 -20 -3 -35 -7 -33 -5 3 -14 -1 -21 -9
-7 -8 -10 -14 -5 -14 4 0 -2 -7 -13 -15 -10 -8 -15 -15 -10 -15 5 0 1 -9 -9
-20 -10 -11 -13 -20 -7 -20 7 0 12 5 12 10 0 6 5 10 11 10 8 0 9 -4 0 -13 -6
-8 -7 -17 -3 -21 4 -4 2 -7 -3 -6 -31 7 -41 -16 -20 -49 5 -9 4 -12 -2 -8 -6
4 -16 0 -23 -9 -7 -8 -18 -13 -25 -10 -6 2 -12 -2 -12 -10 0 -7 4 -11 7 -9 4
3 8 -7 8 -20 0 -18 -5 -25 -17 -23 -9 2 -15 -3 -13 -11 1 -7 -3 -20 -10 -28
-9 -12 -9 -16 3 -24 10 -6 11 -9 1 -9 -7 0 -15 7 -18 15 -8 21 -20 19 -20 -4
0 -11 5 -17 11 -14 5 3 4 0 -2 -8 -7 -7 -13 -21 -13 -31 0 -10 -5 -18 -11 -18
-5 0 -8 4 -5 8 3 5 -1 9 -9 9 -11 0 -12 -4 -4 -13 6 -7 6 -14 0 -18 -5 -3 -8
-19 -7 -35 1 -20 -2 -27 -11 -24 -7 3 -10 10 -6 17 3 6 2 7 -3 3 -5 -5 -9 -19
-9 -30 0 -14 -5 -21 -15 -19 -11 3 -9 -2 5 -18 15 -17 16 -20 3 -15 -11 4 -21
-1 -29 -17 -13 -23 -15 -29 -17 -60 -2 -12 -7 -15 -19 -11 -16 6 -17 5 -3 -12
14 -17 13 -18 -3 -12 -11 4 -16 3 -12 -3 4 -6 -3 -22 -14 -36 -12 -15 -21 -23
-21 -19 0 5 8 18 18 29 17 20 16 21 -3 5 -18 -14 -25 -15 -52 -10 -4 0 2 8 13
17 10 8 13 13 7 9 -12 -6 -18 7 -14 28 1 5 -3 6 -9 2 -5 -3 -10 1 -10 9 0 9
-4 16 -10 16 -5 0 -10 9 -10 21 0 22 -24 52 -34 42 -3 -4 -7 6 -7 20 -3 51 -9
61 -26 43 -4 -5 -3 -7 2 -3 6 3 12 -4 12 -16 2 -22 2 -22 -10 -2 -6 11 -12 28
-13 38 -1 9 -2 27 -4 40 -1 12 -4 16 -7 10 -2 -7 -12 -13 -21 -13 -15 0 -15 2
-2 10 8 5 11 10 5 10 -5 0 -3 5 5 11 12 9 11 10 -5 6 -17 -3 -20 1 -19 22 1
33 -5 51 -18 51 -7 0 -6 -5 1 -13 11 -14 5 -27 -13 -27 -6 0 -5 4 3 9 9 6 10
11 2 15 -8 5 -8 13 -1 26 9 16 8 18 -6 13 -13 -5 -15 -3 -9 7 6 10 4 12 -8 7
-18 -7 -33 8 -17 18 19 12 10 26 -12 19 -22 -6 -22 -6 2 16 25 22 25 23 3 17
-23 -5 -27 1 -23 37 1 11 -3 15 -9 12 -6 -4 -11 0 -11 9 0 10 5 13 12 9 6 -4
8 -3 4 4 -3 6 -15 9 -25 7 -15 -3 -18 3 -16 30 1 20 -3 31 -9 28 -5 -4 -7 1
-3 10 3 9 3 16 -1 16 -22 -4 -29 3 -24 26 2 15 0 25 -7 25 -7 0 -9 5 -6 10 3
6 1 10 -4 10 -14 0 -14 -13 -1 -26 7 -7 6 -11 -3 -11 -8 0 -14 14 -16 36 -2
36 -17 55 -35 44 -5 -4 -7 1 -2 12 4 11 2 22 -6 27 -11 6 -10 8 0 8 10 0 10 4
-2 16 -9 8 -22 12 -28 9 -7 -4 -4 1 6 9 17 14 17 16 4 16 -9 0 -20 5 -24 12
-4 6 -3 9 2 6 5 -4 9 5 9 18 0 13 -6 24 -13 24 -7 0 -10 -4 -7 -10 3 -5 2 -10
-4 -10 -16 0 -22 18 -9 23 10 4 10 7 0 15 -7 5 -10 16 -6 25 6 17 -3 21 -36
18 -13 -2 -13 -1 0 9 11 8 12 13 3 16 -7 3 -9 12 -6 20 3 8 0 20 -6 28 -6 7
-7 17 -3 21 4 5 1 5 -6 1 -10 -6 -10 -11 -1 -22 8 -10 8 -14 0 -14 -6 0 -11 5
-11 11 0 5 -6 7 -12 3 -8 -5 -7 0 2 11 10 13 11 19 4 22 -7 2 -9 14 -6 26 l5
22 -24 -20 c-13 -11 -18 -13 -11 -5 17 20 15 31 -4 23 -13 -5 -15 -3 -6 13 9
17 0 64 -12 64 -3 0 -3 -6 0 -13 3 -8 -1 -14 -8 -14 -9 0 -13 15 -13 44 1 28
-5 48 -15 56 -13 11 -13 10 -1 -5 12 -16 11 -18 -3 -18 -14 0 -22 24 -17 53 0
4 -5 7 -11 7 -9 0 -8 4 2 11 12 8 10 9 -9 4 -15 -5 -21 -3 -17 3 9 15 -4 43
-18 35 -6 -4 -5 1 3 10 11 14 11 17 0 18 -8 1 -18 1 -23 0 -5 -1 -6 5 -3 13 4
9 2 18 -2 20 -5 3 -7 17 -5 31 2 22 0 24 -12 14 -8 -6 -17 -9 -21 -5 -3 3 -1
6 5 6 7 0 12 5 12 11 0 5 -6 7 -12 3 -8 -5 -7 0 2 11 12 15 12 17 1 10 -11 -6
-13 -4 -8 8 6 16 -9 23 -37 18 -5 -1 -3 6 5 15 8 10 9 15 3 11 -12 -7 -39 39
-35 61 1 6 -3 12 -10 12 -9 0 -9 3 0 14 8 10 9 16 1 21 -5 3 -10 1 -10 -6 0
-7 -3 -9 -6 -6 -4 4 -1 14 7 24 8 9 9 14 3 10 -6 -3 -20 1 -30 9 -10 9 -12 12
-4 8 13 -7 13 -5 1 9 -7 9 -11 26 -8 36 3 14 1 18 -9 14 -8 -3 -14 0 -14 7 0
6 -5 8 -12 4 -10 -6 -10 -5 0 8 10 13 9 18 -5 29 -11 9 -14 10 -9 2 4 -7 2
-13 -3 -13 -15 0 -14 13 2 29 10 11 9 13 -5 8 -11 -4 -15 -1 -13 11 1 9 -3 20
-9 25 -8 5 -7 10 4 16 8 6 11 13 7 17 -4 4 -14 -1 -21 -12 -8 -10 -18 -16 -22
-11 -4 4 -1 7 6 7 9 0 7 5 -6 15 -16 13 -16 14 -1 9 13 -5 16 -2 11 10 -3 9
-11 16 -18 16 -6 0 -4 5 4 11 12 9 11 10 -6 6 -13 -3 -21 1 -21 9 0 7 5 10 11
7 6 -4 4 2 -5 13 -9 10 -15 30 -13 44 3 18 2 21 -5 10 -5 -8 -7 -19 -4 -25 3
-5 -3 -2 -13 8 -16 14 -17 21 -6 37 7 11 9 20 5 19 -19 -3 -25 2 -14 14 8 10
7 14 -4 14 -8 0 -12 -4 -9 -9 3 -4 0 -8 -5 -8 -6 0 -11 3 -12 8 -3 29 -9 46
-21 53 -9 6 -10 9 -1 9 7 0 10 7 6 16 -4 11 -8 12 -13 4 -5 -8 -9 -7 -13 4 -3
8 -1 17 6 20 7 2 5 5 -5 5 -9 1 -20 6 -24 13 -5 7 -2 9 9 5 11 -4 14 -2 10 9
-3 8 -12 13 -21 12 -15 -3 -19 9 -24 64 -2 22 -5 25 -17 15 -12 -10 -14 -9 -8
6 3 9 2 17 -4 17 -6 0 -5 9 2 23 11 20 11 21 -5 8 -20 -17 -25 -13 -32 25 -8
38 -12 58 -14 64 -1 3 -2 9 -1 14 1 5 -5 6 -14 2 -11 -4 -15 -1 -13 11 2 9 -6
22 -17 27 -12 7 -19 18 -17 30 3 11 0 16 -7 12 -6 -4 -11 0 -11 9 0 9 4 13 10
10 6 -3 7 1 4 10 -5 11 -10 13 -19 5 -9 -8 -13 -5 -13 12 0 44 -18 81 -34 71
-7 -3 -13 35 -10 59 1 3 -5 9 -13 12 -15 6 -17 -14 -2 -25 5 -3 2 -9 -6 -12
-10 -4 -14 0 -12 11 1 9 -2 23 -8 30 -6 8 -5 12 4 12 8 0 5 8 -8 23 -11 12
-18 28 -16 35 3 8 -1 10 -12 5 -15 -5 -16 -3 -7 14 9 17 6 27 -18 60 -16 22
-27 43 -23 46 3 4 -4 4 -17 2 -18 -3 -20 -2 -10 10 10 12 10 15 -1 15 -10 0
-11 3 -3 8 9 5 8 10 -2 20 -7 7 -17 13 -21 13 -5 0 -7 7 -5 15 2 8 -2 14 -9
14 -8 0 -7 5 2 17 12 14 12 16 0 8 -11 -6 -13 -4 -8 8 3 9 1 19 -5 23 -7 5 -8
2 -3 -6 5 -8 3 -11 -6 -8 -8 3 -13 13 -11 23 2 10 -1 14 -7 10 -6 -3 -11 -1
-11 4 0 6 5 11 10 11 6 0 5 6 -2 14 -8 8 -17 10 -23 6 -7 -6 -11 -2 -11 10 0
10 4 17 7 14 4 -2 11 0 14 6 4 6 1 9 -7 8 -7 -2 -12 3 -10 10 1 8 -2 11 -8 7
-5 -3 -10 1 -10 10 0 10 5 13 12 9 7 -4 8 -3 4 5 -4 6 -11 9 -15 6 -5 -2 -16
2 -26 9 -14 10 -15 15 -5 21 9 6 11 4 5 -5 -5 -9 -4 -11 4 -6 6 4 9 12 5 17
-3 5 -10 7 -15 4 -5 -4 -9 2 -10 12 0 16 -1 16 -10 -2 -8 -17 -9 -16 -6 7 4
24 1 27 -19 24 -18 -4 -22 -1 -19 15 3 14 -1 19 -12 17 -9 -2 -22 6 -27 17 -9
16 -21 20 -63 20 -28 0 -50 2 -48 5 2 4 -6 12 -18 20 -21 12 -21 12 -7 -5z
m-254 -120 c-3 -9 -11 -13 -16 -10 -8 5 -7 11 1 21 14 18 24 11 15 -11z m511
-70 c0 -8 -4 -12 -9 -9 -5 3 -6 10 -3 15 9 13 12 11 12 -6z m-573 -93 c-6 -4
-10 -15 -8 -25 2 -15 0 -16 -12 -6 -11 9 -12 15 -3 25 6 8 17 14 23 14 8 0 8
-2 0 -8z m771 -252 c-3 -5 1 -11 7 -13 9 -4 10 -6 1 -6 -13 -1 -26 16 -29 37
-2 10 1 10 12 1 7 -6 12 -15 9 -19z m115 -230 c0 -5 -2 -10 -4 -10 -3 0 -8 5
-11 10 -3 6 -1 10 4 10 6 0 11 -4 11 -10z m-960 -24 c0 -3 -4 -8 -10 -11 -5
-3 -10 -1 -10 4 0 6 5 11 10 11 6 0 10 -2 10 -4z m-5 -36 c3 -5 1 -10 -4 -10
-6 0 -11 5 -11 10 0 6 2 10 4 10 3 0 8 -4 11 -10z m1080 -130 c3 -5 2 -10 -4
-10 -5 0 -13 5 -16 10 -3 6 -2 10 4 10 5 0 13 -4 16 -10z m75 -154 c0 -3 -4
-8 -10 -11 -5 -3 -10 -1 -10 4 0 6 5 11 10 11 6 0 10 -2 10 -4z m-1270 -406
c0 -5 -4 -10 -10 -10 -5 0 -10 5 -10 10 0 6 5 10 10 10 6 0 10 -4 10 -10z
m-83 -490 c-1 -22 -4 -40 -7 -40 -5 0 -6 66 -1 78 5 12 9 -5 8 -38z m-6 -83
c-10 -9 -11 -8 -5 6 3 10 9 15 12 12 3 -3 0 -11 -7 -18z m3264 -167 c-3 -5 -1
-10 6 -10 7 0 10 -3 6 -6 -9 -9 -28 6 -22 17 4 5 8 9 11 9 3 0 2 -4 -1 -10z
m820 -240 c-3 -5 -12 -10 -18 -10 -7 0 -6 4 3 10 19 12 23 12 15 0z m-1075
-274 c0 -3 -4 -8 -10 -11 -5 -3 -10 -1 -10 4 0 6 5 11 10 11 6 0 10 -2 10 -4z
m-747 -31 c4 -8 1 -17 -5 -21 -7 -4 -8 -3 -4 4 4 7 2 12 -4 12 -6 0 -8 5 -5
10 8 14 12 13 18 -5z m4904 -84 c0 -11 -5 -18 -9 -15 -4 3 -5 11 -1 19 7 21
12 19 10 -4z m27 3 c3 -8 2 -12 -4 -9 -6 3 -10 10 -10 16 0 14 7 11 14 -7z
m-2799 -204 c3 -6 -1 -7 -9 -4 -18 7 -21 14 -7 14 6 0 13 -4 16 -10z m112
-215 c0 -20 -4 -19 -17 5 -8 15 -8 18 3 14 8 -3 14 -11 14 -19z m-1973 7 c2
-4 0 -14 -6 -22 -8 -12 -9 -12 -5 2 3 9 1 19 -6 22 -9 3 -9 5 0 5 6 1 14 -3
17 -7z m4852 -44 c3 -4 -1 -5 -10 -4 -8 1 -18 5 -22 8 -3 4 1 5 10 4 8 -1 18
-5 22 -8z m-4818 -29 c9 -12 9 -16 -1 -16 -7 0 -14 9 -14 20 -1 11 -1 18 0 16
2 -2 8 -11 15 -20z m42 -69 c0 -5 -5 -10 -11 -10 -5 0 -7 5 -4 10 3 6 8 10 11
10 2 0 4 -4 4 -10z m-2829 -14 c-9 -11 -9 -15 1 -18 8 -3 7 -6 -4 -10 -9 -4
-15 -2 -14 5 2 15 16 37 23 37 3 0 0 -6 -6 -14z m7630 -143 c13 -16 12 -17 -3
-4 -17 13 -22 21 -14 21 2 0 10 -8 17 -17z m46 -173 c2 -20 -8 -26 -20 -13 -4
3 -2 12 4 20 15 17 14 17 16 -7z m41 -279 c-7 -11 -16 -17 -21 -14 -4 3 0 11
10 19 24 18 25 17 11 -5z m-1971 -186 c0 -8 -4 -12 -9 -9 -5 3 -6 10 -3 15 9
13 12 11 12 -6z m-497 -79 c0 -3 -4 -8 -10 -11 -5 -3 -10 -1 -10 4 0 6 5 11
10 11 6 0 10 -2 10 -4z m-5414 -204 c-17 -16 -18 -16 -5 5 7 12 15 20 18 17 3
-2 -3 -12 -13 -22z m7998 -220 c3 -5 -1 -9 -9 -9 -8 0 -12 4 -9 9 3 4 7 8 9 8
2 0 6 -4 9 -8z m33 -188 c-3 -3 -12 -4 -19 -1 -8 3 -5 6 6 6 11 1 17 -2 13 -5z
m-1 -49 c-1 -13 -5 -27 -8 -30 -4 -4 -5 1 -4 12 2 10 -1 26 -6 35 -6 13 -5 16
5 12 8 -3 13 -16 13 -29z m-8105 -38 c-10 -9 -11 -8 -5 6 3 10 9 15 12 12 3
-3 0 -11 -7 -18z m-134 -888 c0 -30 -1 -30 -13 -8 -12 23 -10 39 5 39 4 0 8
-14 8 -31z m-37 -259 c0 -5 -5 -10 -11 -10 -5 0 -7 5 -4 10 3 6 8 10 11 10 2
0 4 -4 4 -10z m8507 -215 c0 -17 -13 -20 -21 -6 -4 5 0 12 6 14 7 3 13 6 14 6
0 1 1 -6 1 -14z m34 -233 c-6 -2 -8 -9 -4 -15 3 -7 2 -9 -2 -4 -5 4 -9 16 -10
27 -1 16 1 17 13 8 9 -8 10 -14 3 -16z m-8661 -291 c0 -6 -4 -12 -8 -15 -5 -3
-9 1 -9 9 0 8 4 15 9 15 4 0 8 -4 8 -9z m8734 -146 c3 -8 1 -15 -4 -15 -6 0
-10 7 -10 15 0 8 2 15 4 15 2 0 6 -7 10 -15z m2 -40 c-1 -8 -5 -17 -8 -21 -5
-4 -4 16 1 34 3 9 9 -1 7 -13z m-8776 -55 c0 -5 -2 -10 -4 -10 -3 0 -8 5 -11
10 -3 6 -1 10 4 10 6 0 11 -4 11 -10z m8825 -182 c4 -3 2 -9 -3 -12 -5 -3 -15
1 -21 8 -10 11 -9 14 3 12 9 -1 18 -5 21 -8z m56 -475 c13 -16 12 -17 -3 -4
-10 7 -18 15 -18 17 0 8 8 3 21 -13z m44 -173 c3 -6 -1 -7 -9 -4 -18 7 -21 14
-7 14 6 0 13 -4 16 -10z m5 -24 c0 -3 -4 -8 -10 -11 -5 -3 -10 -1 -10 4 0 6 5
11 10 11 6 0 10 -2 10 -4z m29 -218 c11 -15 11 -18 -1 -18 -7 0 -14 10 -15 21
-1 12 -1 20 0 18 2 -2 9 -12 16 -21z m45 -236 c2 -4 0 -14 -6 -22 -8 -12 -9
-12 -4 2 3 10 -1 18 -12 21 -16 4 -16 5 0 6 9 0 19 -3 22 -7z m33 -242 c1 -11
-2 -20 -5 -20 -4 0 -8 9 -9 20 -1 11 2 20 5 20 4 0 8 -9 9 -20z m-9302 -190
c3 -6 -1 -7 -9 -4 -18 7 -21 14 -7 14 6 0 13 -4 16 -10z m9382 -285 c0 -8 -4
-15 -9 -15 -4 0 -8 7 -8 15 0 8 4 15 8 15 5 0 9 -7 9 -15z m0 -77 c-3 -8 -6
-5 -6 6 -1 11 2 17 5 13 3 -3 4 -12 1 -19z m163 -892 c0 -2 -7 -7 -16 -10 -8
-3 -12 -2 -9 4 6 10 25 14 25 6z m-9803 -336 c-1 -11 -7 -22 -13 -24 -13 -5
-13 11 -1 32 12 17 16 15 14 -8z m9868 -131 c-4 -5 -12 -9 -18 -8 -9 0 -8 2 1
6 6 2 9 10 6 15 -4 7 -2 8 5 4 6 -4 9 -12 6 -17z m-9905 -163 c0 -2 -8 -10
-17 -17 -16 -13 -17 -12 -4 4 13 16 21 21 21 13z m37 -501 c0 -8 -4 -12 -9 -9
-5 3 -6 10 -3 15 9 13 12 11 12 -6z m160 -100 c0 -8 -4 -12 -9 -9 -5 3 -6 10
-3 15 9 13 12 11 12 -6z m9398 -55 c3 -5 1 -10 -4 -10 -6 0 -11 5 -11 10 0 6
2 10 4 10 3 0 8 -4 11 -10z m-159 -85 c-1 -8 -5 -17 -8 -21 -5 -4 -4 16 1 34
3 9 9 -1 7 -13z m-112 -63 c3 -5 -1 -9 -9 -9 -8 0 -12 4 -9 9 3 4 7 8 9 8 2 0
6 -4 9 -8z m-8564 -97 c0 -12 -19 -12 -23 0 -4 9 -1 12 9 8 7 -3 14 -7 14 -8z
m8344 -13 c3 -5 -1 -9 -9 -9 -8 0 -12 4 -9 9 3 4 7 8 9 8 2 0 6 -4 9 -8z
m-263 -169 c13 -16 12 -17 -3 -4 -10 7 -18 15 -18 17 0 8 8 3 21 -13z m-541
-291 c0 -5 -7 -17 -15 -28 -14 -18 -14 -17 -4 9 12 27 19 34 19 19z m-6616
-58 c3 -8 2 -12 -4 -9 -6 3 -10 10 -10 16 0 14 7 11 14 -7z m216 -108 c0 -3
-4 -8 -10 -11 -5 -3 -10 -1 -10 4 0 6 5 11 10 11 6 0 10 -2 10 -4z m261 -153
c12 -16 12 -17 -2 -6 -9 7 -20 9 -24 5 -5 -4 -5 -1 -1 6 9 16 11 15 27 -5z
m194 -103 c3 -5 1 -10 -4 -10 -6 0 -11 5 -11 10 0 6 2 10 4 10 3 0 8 -4 11
-10z m5205 -2 c0 -4 -4 -8 -9 -8 -6 0 -12 4 -15 8 -3 5 1 9 9 9 8 0 15 -4 15
-9z m-5140 -44 c0 -20 -7 -17 -20 6 -9 16 -8 18 5 14 8 -4 15 -12 15 -20z
m4985 -33 c3 -5 2 -12 -3 -15 -5 -3 -9 1 -9 9 0 17 3 19 12 6z m-4244 -394
c-10 -9 -11 -8 -5 6 3 10 9 15 12 12 3 -3 0 -11 -7 -18z m136 -59 c-3 -8 -6
-5 -6 6 -1 11 2 17 5 13 3 -3 4 -12 1 -19z m2608 -388 c3 -6 -1 -7 -9 -4 -18
7 -21 14 -7 14 6 0 13 -4 16 -10z m-1651 -142 c-3 -4 -9 -8 -15 -8 -5 0 -9 4
-9 8 0 5 7 9 15 9 8 0 12 -4 9 -9z m141 -97 c-6 -5 -25 10 -25 20 0 5 6 4 14
-3 8 -7 12 -15 11 -17z m328 -126 c-3 -9 -8 -14 -10 -11 -3 3 -2 9 2 15 9 16
15 13 8 -4z m435 -20 c-3 -3 -9 2 -12 12 -6 14 -5 15 5 6 7 -7 10 -15 7 -18z"/>
<path d="M6350 15729 c0 -5 5 -7 10 -4 6 3 10 8 10 11 0 2 -4 4 -10 4 -5 0
-10 -5 -10 -11z"/>
<path d="M5842 15635 c4 -4 3 -14 -3 -22 -7 -8 -8 -13 -1 -13 15 0 23 28 9 36
-7 4 -9 4 -5 -1z"/>
<path d="M6536 15423 c-6 -14 -5 -15 5 -6 7 7 10 15 7 18 -3 3 -9 -2 -12 -12z"/>
<path d="M5770 15290 c0 -5 5 -10 11 -10 5 0 7 5 4 10 -3 6 -8 10 -11 10 -2 0
-4 -4 -4 -10z"/>
<path d="M6655 15211 c-3 -5 -2 -12 3 -15 5 -3 9 1 9 9 0 17 -3 19 -12 6z"/>
<path d="M6875 14790 c-3 -5 -1 -10 4 -10 6 0 11 5 11 10 0 6 -2 10 -4 10 -3
0 -8 -4 -11 -10z"/>
<path d="M5659 14568 c-1 -2 -3 -13 -4 -25 -3 -26 10 -31 19 -7 4 10 2 13 -6
8 -8 -5 -9 -2 -5 9 5 13 1 25 -4 15z"/>
<path d="M7296 14002 c-2 -4 2 -16 10 -27 8 -10 14 -14 14 -8 0 7 -5 15 -11
19 -8 4 -7 9 2 15 10 6 10 9 2 9 -6 0 -14 -3 -17 -8z"/>
<path d="M7415 13810 c-3 -5 -1 -10 4 -10 6 0 11 5 11 10 0 6 -2 10 -4 10 -3
0 -8 -4 -11 -10z"/>
<path d="M8838 13613 c7 -3 16 -2 19 1 4 3 -2 6 -13 5 -11 0 -14 -3 -6 -6z"/>
<path d="M5508 13588 c9 -11 10 -18 2 -23 -5 -3 -10 -16 -10 -27 0 -22 10 -20
14 4 1 7 5 18 9 24 4 7 -1 18 -11 25 -15 13 -16 12 -4 -3z"/>
<path d="M9607 13379 c7 -7 15 -10 18 -7 3 3 -2 9 -12 12 -14 6 -15 5 -6 -5z"/>
<path d="M12620 12981 c0 -7 -5 -9 -12 -5 -7 5 -8 3 -3 -5 5 -9 10 -10 18 -2
6 6 8 14 4 18 -4 3 -7 1 -7 -6z"/>
<path d="M12575 12970 c3 -5 8 -10 11 -10 2 0 4 5 4 10 0 6 -5 10 -11 10 -5 0
-7 -4 -4 -10z"/>
<path d="M8454 12889 c0 -13 3 -15 13 -7 7 6 13 12 13 13 0 2 -6 5 -13 8 -7 3
-13 -3 -13 -14z"/>
<path d="M5386 12832 c-2 -4 4 -8 14 -8 10 0 16 4 14 8 -3 4 -9 8 -14 8 -5 0
-11 -4 -14 -8z"/>
<path d="M8410 12826 c0 -2 7 -7 16 -10 8 -3 12 -2 9 4 -6 10 -25 14 -25 6z"/>
<path d="M9986 12672 c-3 -5 1 -9 9 -9 8 0 12 4 9 9 -3 4 -7 8 -9 8 -2 0 -6
-4 -9 -8z"/>
<path d="M5345 12611 c-9 -15 15 -25 28 -12 9 9 7 10 -7 5 -13 -5 -17 -4 -12
4 4 7 5 12 2 12 -3 0 -7 -4 -11 -9z"/>
<path d="M10026 12578 c3 -5 10 -6 15 -3 13 9 11 12 -6 12 -8 0 -12 -4 -9 -9z"/>
<path d="M5314 12400 c0 -13 4 -16 10 -10 7 7 7 13 0 20 -6 6 -10 3 -10 -10z"/>
<path d="M12975 12279 c2 -17 7 -35 12 -40 6 -6 9 -2 8 10 -1 12 -4 23 -7 27
-4 3 -4 12 -1 20 3 8 1 14 -5 14 -5 0 -8 -14 -7 -31z"/>
<path d="M5283 12133 c4 -6 2 -13 -5 -15 -8 -3 -6 -6 4 -10 17 -7 19 15 3 29
-4 4 -5 3 -2 -4z"/>
<path d="M13043 11845 c0 -8 4 -12 9 -9 4 3 8 0 8 -7 0 -7 2 -10 5 -7 7 7 -5
38 -14 38 -4 0 -8 -7 -8 -15z"/>
<path d="M11100 11619 c0 -5 5 -7 10 -4 6 3 10 8 10 11 0 2 -4 4 -10 4 -5 0
-10 -5 -10 -11z"/>
<path d="M13089 11603 c-13 -16 -12 -17 4 -4 16 13 21 21 13 21 -2 0 -10 -8
-17 -17z"/>
<path d="M13096 11563 c-6 -14 -5 -15 5 -6 7 7 10 15 7 18 -3 3 -9 -2 -12 -12z"/>
<path d="M13116 11412 c-3 -5 1 -9 9 -9 8 0 12 4 9 9 -3 4 -7 8 -9 8 -2 0 -6
-4 -9 -8z"/>
<path d="M4930 9970 c0 -5 5 -10 10 -10 6 0 10 5 10 10 0 6 -4 10 -10 10 -5 0
-10 -4 -10 -10z"/>
<path d="M13396 9685 c4 -8 8 -15 10 -15 2 0 4 7 4 15 0 8 -4 15 -10 15 -5 0
-7 -7 -4 -15z"/>
<path d="M4866 9488 c3 -5 10 -6 15 -3 13 9 11 12 -6 12 -8 0 -12 -4 -9 -9z"/>
<path d="M13460 9271 c0 -6 4 -13 10 -16 6 -3 7 1 4 9 -7 18 -14 21 -14 7z"/>
<path d="M4600 7760 c-9 -6 -10 -10 -3 -10 6 0 15 5 18 10 8 12 4 12 -15 0z"/>
<path d="M13851 6924 c0 -11 3 -14 6 -6 3 7 2 16 -1 19 -3 4 -6 -2 -5 -13z"/>
<path d="M4370 6309 c0 -5 5 -7 10 -4 6 3 10 8 10 11 0 2 -4 4 -10 4 -5 0 -10
-5 -10 -11z"/>
<path d="M13956 6191 c-4 -6 -2 -11 4 -11 6 0 8 -4 5 -10 -3 -5 -1 -10 4 -10
13 0 14 10 2 29 -6 9 -11 10 -15 2z"/>
<path d="M4340 6070 c-9 -6 -10 -10 -3 -10 6 0 15 5 18 10 8 12 4 12 -15 0z"/>
<path d="M14037 5823 c-10 -9 -9 -23 1 -23 5 0 9 7 9 15 0 17 -1 18 -10 8z"/>
<path d="M14027 5734 c-8 -8 1 -24 14 -24 5 0 9 7 9 15 0 15 -12 20 -23 9z"/>
<path d="M4255 5590 c-3 -5 -1 -10 4 -10 6 0 11 5 11 10 0 6 -2 10 -4 10 -3 0
-8 -4 -11 -10z"/>
<path d="M14187 4755 c3 -8 9 -12 14 -9 12 7 11 11 -5 17 -10 4 -13 1 -9 -8z"/>
<path d="M4106 4648 c3 -5 10 -6 15 -3 13 9 11 12 -6 12 -8 0 -12 -4 -9 -9z"/>
<path d="M4454 4405 c22 -17 40 -20 32 -6 -3 5 -16 11 -28 14 -22 6 -22 5 -4
-8z"/>
<path d="M4859 4173 c-13 -16 -12 -17 3 -5 13 10 17 10 21 0 2 -7 7 -10 11 -7
4 3 0 11 -7 18 -11 9 -17 7 -28 -6z"/>
<path d="M5180 3989 c0 -5 5 -7 10 -4 6 3 10 8 10 11 0 2 -4 4 -10 4 -5 0 -10
-5 -10 -11z"/>
<path d="M5268 3953 c6 -2 9 -10 6 -15 -4 -7 -2 -8 5 -4 13 9 5 26 -12 25 -9
0 -8 -2 1 -6z"/>
<path d="M5800 3651 c0 -6 4 -13 10 -16 6 -3 7 1 4 9 -7 18 -14 21 -14 7z"/>
<path d="M12365 3579 c-11 -17 1 -21 15 -4 8 9 8 15 2 15 -6 0 -14 -5 -17 -11z"/>
<path d="M5993 3533 c0 -9 4 -10 14 -2 7 6 13 12 13 14 0 1 -6 2 -13 2 -8 0
-14 -6 -14 -14z"/>
<path d="M6407 3316 c-4 -10 -3 -15 3 -11 6 3 10 1 10 -6 0 -7 3 -10 6 -6 3 3
2 13 -4 22 -8 16 -9 16 -15 1z"/>
<path d="M11880 3310 c-20 -12 -10 -19 14 -10 11 3 15 9 10 13 -6 3 -16 2 -24
-3z"/>
<path d="M6670 3166 c0 -2 7 -7 16 -10 8 -3 12 -2 9 4 -6 10 -25 14 -25 6z"/>
<path d="M6875 3040 c-3 -5 -1 -10 4 -10 6 0 11 5 11 10 0 6 -2 10 -4 10 -3 0
-8 -4 -11 -10z"/>
<path d="M6933 3017 c0 -8 6 -14 14 -14 9 0 10 4 2 14 -6 7 -12 13 -14 13 -1
0 -2 -6 -2 -13z"/>
<path d="M7280 2820 c-9 -6 -10 -10 -3 -10 6 0 15 5 18 10 8 12 4 12 -15 0z"/>
<path d="M7552 2671 c-11 -6 -9 -9 6 -13 15 -4 19 -2 15 8 -6 16 -4 16 -21 5z"/>
<path d="M10745 2660 c-3 -6 1 -7 9 -4 18 7 21 14 7 14 -6 0 -13 -4 -16 -10z"/>
<path d="M10665 2631 c-3 -5 -2 -12 3 -15 5 -3 9 1 9 9 0 17 -3 19 -12 6z"/>
<path d="M7770 2550 c0 -5 5 -10 11 -10 5 0 7 5 4 10 -3 6 -8 10 -11 10 -2 0
-4 -4 -4 -10z"/>
<path d="M8035 2399 c-4 -6 -4 -13 -1 -16 3 -4 6 -1 6 6 0 7 5 9 12 5 7 -4 8
-3 4 4 -9 15 -13 15 -21 1z"/>
<path d="M10010 2249 c0 -5 5 -7 10 -4 6 3 10 8 10 11 0 2 -4 4 -10 4 -5 0
-10 -5 -10 -11z"/>
<path d="M9721 2094 c0 -11 3 -14 6 -6 3 7 2 16 -1 19 -3 4 -6 -2 -5 -13z"/>
<path d="M8699 2020 c-6 -4 1 -7 15 -7 14 0 26 3 26 7 0 3 -7 7 -15 7 -8 0
-19 -4 -26 -7z"/>
<path d="M9491 1986 c-8 -10 -9 -16 -1 -21 6 -4 9 -1 8 7 -2 7 3 12 10 10 8
-1 11 2 7 8 -8 13 -10 13 -24 -4z"/>
</g>
</svg>
